<svg width="595" height="600" viewBox="0 0 595 600" fill="none" xmlns="http://www.w3.org/2000/svg">
<path d="M214.516 218.309C214.11 217.936 213.561 217.767 213.049 217.593C212.454 217.324 211.893 216.981 211.274 216.757C209.265 215.95 207.018 215.847 204.895 216.182C202.468 216.629 200.255 217.924 198.463 219.616C202.481 220.82 204.297 220.613 207.793 220.63C208.478 220.65 209.162 220.638 209.843 220.522C211.294 220.261 212.86 219.976 213.934 218.871C214.147 218.718 214.319 218.478 214.578 218.408C214.557 218.375 214.541 218.342 214.516 218.313V218.309Z" fill="white"/>
<path d="M234.972 224.229C234.082 223.596 233.791 223.501 233.107 223.124C232.422 222.595 231.709 222.094 230.963 221.652C229.602 220.766 227.962 220.497 226.371 220.448C224.801 220.361 223.215 220.477 221.702 220.932C224.617 224.374 230.438 227.051 233.689 225.023C233.701 225.015 233.705 225.015 233.709 225.011C234.045 224.825 234.373 224.618 234.726 224.461C234.857 224.378 235.234 224.378 234.976 224.229H234.972Z" fill="white"/>
<path d="M250.217 230.741C249.208 229.049 247.417 228.064 245.56 227.593C244.297 227.237 242.965 227.009 241.658 227.208C243.719 231.122 246.626 233.414 249.422 234.87C249.844 235.135 250.315 235.301 250.787 235.449C250.988 235.483 251.279 235.71 251.221 235.367C251.356 233.761 251.086 232.115 250.217 230.741Z" fill="white"/>
<path d="M252.127 242.727C250.721 245.706 250.303 247.274 249.881 250.782C249.799 252.681 250.061 254.568 250.094 256.463C250.094 256.562 250.102 256.657 250.102 256.756C250.352 256.57 250.606 256.384 250.844 256.181C251.434 255.677 252.189 254.932 252.836 253.922C255.103 250.534 254.394 245.929 252.127 242.727Z" fill="white"/>
<path d="M245.929 267.331C246.286 265.519 246.737 263.72 246.888 261.878C244.605 262.896 242.371 264.655 241.551 267.108C241.379 267.547 241.207 267.993 241.162 268.461C241.108 268.726 241.071 268.999 241.034 269.268C241.034 269.268 241.034 269.276 241.03 269.28C241.03 269.28 241.03 269.284 241.026 269.288C239.165 271.071 238.911 273.906 238.973 276.309C240.387 275.329 241.658 274.133 242.838 272.875C243.113 272.594 242.707 272.995 242.605 273.09C242.699 272.999 242.797 272.904 242.891 272.813C242.908 272.797 242.924 272.784 242.941 272.768C242.928 272.78 242.916 272.788 242.908 272.801C242.978 272.731 243.035 272.677 243.084 272.631C243.105 272.611 243.125 272.59 243.146 272.569C243.133 272.582 243.117 272.598 243.096 272.619C243.31 272.433 243.433 272.375 244.207 271.522C244.371 271.278 244.515 271.022 244.646 270.761C244.736 270.604 244.835 270.393 244.863 270.236C244.863 270.232 244.863 270.223 244.867 270.219C244.88 270.17 244.9 270.124 244.917 270.079C244.945 270 244.966 269.917 244.99 269.834C244.99 269.834 244.99 269.834 244.99 269.83C244.953 269.95 244.929 270.033 244.966 269.934C244.986 269.876 245.011 269.826 245.035 269.768C245.24 269.466 245.4 269.135 245.519 268.784C245.72 268.333 245.814 267.832 245.925 267.348L245.929 267.331Z" fill="white"/>
<path d="M242.945 272.755C242.998 272.706 243.055 272.648 243.101 272.606C243.096 272.611 243.092 272.615 243.084 272.619C243.039 272.664 242.99 272.71 242.945 272.755Z" fill="black"/>
<path d="M228.277 288.849C228.261 288.945 228.253 289.044 228.245 289.143C227.913 289.925 227.753 290.777 227.822 291.625C227.818 291.708 227.822 291.799 227.814 291.94C228.163 291.803 228.466 291.584 228.786 291.39C228.802 291.381 228.806 291.377 228.819 291.369C229.228 291.17 229.634 290.964 230.061 290.802C231.278 290.041 232.43 289.073 233.332 287.935C234.926 285.664 236.005 283.036 236.747 280.368C231.819 281.588 228.937 285.403 228.277 288.849Z" fill="white"/>
<path d="M220.358 300.777C219.202 301.795 218.358 303.16 218.058 304.687C217.849 305.85 218.071 307.02 218.313 308.158C218.44 308.882 218.575 309.755 218.94 310.318C219.005 310.417 219.141 310.785 219.21 310.587C219.456 310.248 219.76 309.95 220.051 309.648C221.186 308.601 221.715 307.111 222.359 305.738C223.355 303.334 224.088 300.802 224.318 298.2C222.818 298.725 221.477 299.644 220.358 300.773V300.777Z" fill="white"/>
<path d="M228.843 327.322C228.663 326.826 228.462 326.337 228.241 325.862C227.433 324.124 225.76 323.073 224.436 321.753C224.412 321.724 224.354 321.654 224.248 321.534C223.432 320.587 222.563 319.681 221.805 318.683C221.083 317.711 220.46 316.673 219.734 315.705C217.73 319.714 219.341 324.36 223.178 326.503C224.104 326.975 225.15 327.157 226.17 327.289C227.039 327.471 227.917 327.632 228.81 327.608C229.048 327.649 228.88 327.459 228.843 327.322Z" fill="white"/>
<path d="M248.77 336.846C248.368 336.507 247.979 336.151 247.552 335.845C246.081 334.579 244.211 333.929 242.424 333.259C240.432 332.452 238.423 331.679 236.419 330.893C236.833 334.149 239.341 337.19 242.621 337.727C243.674 337.876 244.732 337.76 245.773 337.574C246.712 337.45 247.659 337.372 248.581 337.152C248.885 337.07 249.167 337.161 248.77 336.842V336.846Z" fill="white"/>
<path d="M266.659 342.32C266.52 342.208 266.389 342.084 266.249 341.972C265.848 341.641 265.45 341.302 265.036 340.983C262.224 338.807 258.477 338.579 255.067 338.815C256.567 340.9 258.74 342.576 261.24 343.193C263.023 343.495 265.016 343.507 266.635 342.593C266.811 342.473 266.893 342.444 266.659 342.311V342.32Z" fill="white"/>
<path d="M290.165 348.141C289.46 347.553 288.718 347.007 287.902 346.577C288.001 346.635 288.099 346.697 288.197 346.755C287.357 346.205 286.443 345.778 285.471 345.522C284.164 345.245 283.434 345.373 283.413 345.315C283.401 345.315 283.401 345.315 283.389 345.311C283.25 345.265 283.114 345.22 282.975 345.179C282.02 344.86 281.04 344.604 280.04 344.488C278.15 344.264 276.227 344.364 274.366 344.761C276.342 346.709 278.814 348.207 281.466 349.006C282.557 349.415 283.717 349.527 284.869 349.386C286.271 349.299 287.673 349.2 289.017 348.757C289.39 348.646 289.759 348.509 290.112 348.344C290.268 348.269 290.358 348.265 290.157 348.141H290.165Z" fill="white"/>
<path d="M310.509 352.961C310.813 352.92 311.096 352.804 311.362 352.659C311.063 352.415 310.973 352.316 310.743 351.993C310.354 351.621 309.812 351.426 309.366 351.132C309.345 351.12 309.325 351.108 309.3 351.095C309.288 351.087 309.275 351.079 309.255 351.062C306.168 348.456 301.663 348.385 297.933 349.386C300.327 351.939 303.696 354.173 307.316 353.834C307.697 353.764 308.087 353.834 308.468 353.76C309.161 353.652 309.776 353.325 310.382 352.99C310.395 352.986 310.403 352.978 310.415 352.973C310.444 352.973 310.485 352.965 310.513 352.961H310.509Z" fill="white"/>
<path d="M309.172 351.016C309.172 351.016 309.164 351.012 309.16 351.008C309.16 351.008 309.152 351.004 309.148 351.004C309.148 351.004 309.148 351.004 309.152 351.004L309.168 351.012L309.172 351.016Z" fill="black"/>
<path d="M329.374 354.376C327.821 353.445 326.144 353.002 324.34 352.982C322.168 352.87 319.975 353.023 317.892 353.677C320.307 355.456 323.238 357.065 326.316 356.767C327.8 356.432 328.796 356.399 330.875 355.551C331.936 355.46 329.678 354.558 329.378 354.376H329.374Z" fill="white"/>
<path d="M351.74 358.923C351.33 358.625 350.945 358.294 350.551 357.979C349.063 357.107 347.395 356.511 345.706 356.188C343.086 356.047 340.348 356.126 337.848 356.982C342.394 360.946 346.759 361.066 351.715 358.985C351.736 358.972 351.756 358.964 351.781 358.956C351.769 358.943 351.756 358.931 351.74 358.923Z" fill="white"/>
<path d="M374.429 362.303C372.372 361.484 370.564 361.045 367.969 360.867C364.821 360.416 361.644 359.945 358.458 360.284C361.799 363.019 366.132 364.707 370.461 363.995C371.937 363.759 373.384 363.35 374.753 362.746C375.417 362.543 374.729 362.481 374.425 362.303H374.429Z" fill="white"/>
<path d="M395.586 364.599C394.664 363.648 393.397 363.197 392.159 362.816C388.146 361.488 383.743 362.15 380.382 363.255C383.514 365.584 387.588 366.846 391.47 366.362C392.491 366.167 393.504 365.898 394.43 365.423C394.877 365.22 395.377 365.154 395.824 364.938C396.099 364.881 395.668 364.715 395.586 364.599Z" fill="white"/>
<g clip-path="url(#clip0_512_4408)">
<path d="M176.238 222.813C179.519 225.417 183.683 228.362 185.87 230.081C187.802 231.564 189.751 233.028 191.699 234.488C192.479 235 193.133 235.746 194.016 236.071C196.381 236.645 197.158 233.595 195.387 232.739C195.368 232.725 195.348 232.716 195.328 232.702C194.231 231.885 193.144 231.055 192.046 230.241C188.529 227.583 184.036 224.168 179.516 220.817C179.549 220.762 179.582 220.707 179.616 220.652C180.303 219.542 181.095 218.499 181.884 217.458C184.109 214.466 188.628 209.424 191.974 205.39C193.345 203.722 193.743 203.184 194.393 202.299C194.586 201.974 194.827 201.67 195.014 201.342C195.183 201.109 195.286 200.829 195.288 200.539C195.312 199.797 194.651 199.132 193.901 199.135C193.523 199.152 193.161 199.264 192.893 199.542C192.896 199.536 192.912 199.526 192.935 199.51C192.81 199.613 192.691 199.726 192.565 199.833C191.897 200.399 191.289 201.024 190.686 201.655C188.257 204.258 185.929 206.953 183.6 209.648C181.647 211.893 179.784 214.213 178.004 216.595C176.843 218.337 174.477 220.755 176.241 222.81L176.238 222.813Z" fill="#C778DD"/>
</g>
<g clip-path="url(#clip1_512_4408)">
<path d="M417.917 367.204C415.975 363.477 413.365 359.076 412.063 356.607C410.898 354.458 409.711 352.32 408.522 350.186C408.017 349.397 407.722 348.447 407.047 347.788C405.12 346.291 403.177 348.755 404.448 350.266C404.46 350.286 404.474 350.303 404.487 350.323C405.158 351.521 405.815 352.726 406.488 353.92C408.624 357.794 411.346 362.76 414.117 367.679C414.065 367.715 414.012 367.752 413.959 367.789C412.883 368.519 411.738 369.146 410.597 369.771C407.355 371.588 401.19 374.333 396.503 376.64C394.576 377.6 393.995 377.927 393.044 378.468C392.737 378.685 392.393 378.864 392.09 379.086C391.842 379.23 391.634 379.442 391.515 379.706C391.193 380.374 391.527 381.253 392.213 381.559C392.566 381.699 392.942 381.746 393.299 381.602C393.293 381.607 393.275 381.609 393.247 381.614C393.403 381.571 393.558 381.517 393.716 381.471C394.554 381.229 395.363 380.909 396.168 380.58C399.439 379.203 402.655 377.7 405.871 376.196C408.562 374.95 411.201 373.598 413.79 372.155C415.555 371.043 418.693 369.808 417.913 367.206L417.917 367.204Z" fill="#C778DD"/>
</g>
<defs>
<clipPath id="clip0_512_4408">
<rect width="20.825" height="37" fill="white" transform="matrix(-0.999983 -0.00590567 0.00580766 -0.999983 196.344 236.153)"/>
</clipPath>
<clipPath id="clip1_512_4408">
<rect width="20.855" height="36.9475" fill="white" transform="matrix(0.909338 0.416059 -0.410324 0.91194 404.954 346.755)"/>
</clipPath>
</defs>
</svg>
