<svg width="600" height="547" viewBox="0 0 600 547" fill="none" xmlns="http://www.w3.org/2000/svg">
<path d="M235.405 308.003C234.18 308.58 232.76 308.789 231.558 309.422C230.077 310.223 228.635 311.108 227.27 312.063C225.962 313.07 224.909 314.324 224.105 315.696C226.695 315.412 229.168 314.454 231.213 312.983C233.163 311.764 235.252 310.06 235.575 307.948C235.603 307.803 235.476 307.977 235.405 308.003Z" fill="white"/>
<path d="M245.813 299.825C244.435 300.762 242.97 301.583 241.57 302.489C240.214 303.478 239.106 304.738 238.338 306.154C241.528 305.922 244.396 304.48 246.802 302.628C247.871 301.932 248.831 301.125 249.683 300.214C249.996 299.958 250.216 299.636 250.343 299.27C250.528 298.905 250.653 298.528 250.739 298.136C250.187 298.319 249.635 298.51 249.086 298.696C248.129 298.821 247.137 299.108 245.813 299.825Z" fill="white"/>
<path d="M263.743 288.423C262.595 288.858 261.689 289.662 260.684 290.309C258.671 291.609 257.171 293.495 256.319 295.594C258.157 295.245 259.88 294.511 261.43 293.556C262.477 292.848 263.456 292.062 264.49 291.339C265.221 290.794 266.034 290.332 266.679 289.694C267.279 289.061 267.566 288.254 267.846 287.474C267.113 287.584 266.411 287.819 265.699 288.011C265.045 288.138 264.369 288.193 263.743 288.42V288.423Z" fill="white"/>
<path d="M272.801 283.326C275.268 282.792 277.498 281.562 279.332 279.992C280.273 279.281 281.183 278.5 281.798 277.528L281.652 277.749C282.169 277.096 282.676 276.237 282.877 275.531C280.959 275.92 279.055 276.582 277.549 277.757C275.421 279.168 273.79 281.109 272.801 283.326Z" fill="white"/>
<path d="M302.23 265.722C300.734 265.371 301.098 265.496 299.959 265.2C299.601 265.116 299.238 265.061 298.874 265.014C298.967 264.846 299.056 264.678 299.136 264.501C299.566 263.735 299.742 263.114 299.633 262.188C299.005 262.655 298.6 262.922 297.933 263.108C297.359 263.351 297.426 263.331 296.488 263.833C296.146 264.051 295.811 264.283 295.483 264.527C293.39 264.26 291.255 264.309 289.258 265.011C290.426 265.905 291.536 266.587 292.822 267.092C291.804 268.381 291.067 269.835 290.783 271.396C292.946 270.714 294.892 269.533 296.401 267.972C296.462 267.98 296.519 267.989 296.583 267.998C297.926 268.178 299.318 268.416 300.654 268.076C301.841 267.838 302.795 267.084 303.669 266.355C304.001 266.175 302.438 265.775 302.23 265.72V265.722Z" fill="white"/>
<path d="M308.178 247.172C308.018 247.053 308.072 247.222 308.028 247.326C307.964 247.532 307.89 247.735 307.862 247.947C307.587 249.75 307.925 248.798 306.936 250.286C306.79 250.527 306.183 251.375 305.565 252.524C304.885 253.972 304.406 255.516 304.266 257.089C306.097 256.334 307.715 255.113 308.793 253.563C309.795 252.091 310.988 250.034 309.648 248.441C309.25 247.942 308.701 247.553 308.178 247.172Z" fill="white"/>
<path d="M291.328 249.802C291.555 249.761 291.785 249.796 292.008 249.761C292.129 249.735 292.254 249.709 292.375 249.68C292.359 249.68 292.346 249.686 292.333 249.689C292.359 249.683 292.388 249.677 292.413 249.671C292.423 249.671 292.432 249.668 292.442 249.665C292.439 249.665 292.429 249.665 292.426 249.668C292.432 249.668 292.439 249.668 292.445 249.665C292.416 249.671 292.429 249.671 292.538 249.651C293.779 249.509 295.026 249.39 296.261 249.21C299.065 248.772 301.423 247.17 303.519 245.507C301.123 244.996 298.679 245.385 296.392 246.105C296.338 246.116 296.287 246.128 296.232 246.139C295.454 246.299 294.627 246.334 293.906 246.673C292.825 247.173 291.794 247.95 291.351 249.001C291.201 249.253 291.08 249.512 290.974 249.782C290.885 249.88 291.255 249.79 291.325 249.805L291.328 249.802Z" fill="white"/>
<path d="M292.375 249.677C292.394 249.674 292.41 249.671 292.423 249.666C292.42 249.666 292.416 249.666 292.413 249.666C292.401 249.668 292.388 249.671 292.375 249.674V249.677Z" fill="white"/>
<path d="M282.88 257.115C283.732 255.673 284.545 254.201 285.164 252.66C282.845 252.98 280.599 254.193 279.447 256.085C278.656 257.283 278.024 258.627 278.126 260.052C278.238 261.213 278.972 262.324 280.152 262.823C281.065 263.157 282.121 263.314 283.068 263.021C283.32 262.934 283.362 262.96 283.151 262.76C282.982 262.565 282.826 262.365 282.676 262.159C281.76 260.85 281.792 260.859 281.712 260.377C281.696 260.142 281.677 259.91 281.668 259.675C281.671 259.625 281.677 259.573 281.684 259.506C281.658 259.051 282.602 257.516 282.877 257.115H282.88Z" fill="white"/>
<path d="M317.542 262.516C317.586 262.507 317.634 262.495 317.679 262.487C317.778 262.466 317.873 262.443 317.972 262.423C317.829 262.452 317.685 262.484 317.542 262.513V262.516Z" fill="white"/>
<path d="M317.679 262.487C317.548 262.516 317.417 262.542 317.286 262.571C317.353 262.556 317.42 262.542 317.487 262.527C316.585 262.754 315.653 262.919 314.779 263.233C313.094 263.906 311.429 264.837 310.363 266.236C312.44 266.445 314.574 266.587 316.613 266.062C317.59 265.859 318.559 265.615 319.389 265.084C320.499 264.414 321.428 263.215 322.177 262.62C320.809 261.895 319.146 262.182 317.676 262.487H317.679Z" fill="white"/>
<path d="M339.342 258.554C338.924 258.514 338.51 258.467 338.088 258.467C334.372 258.305 331.041 260.22 328.214 262.223C332.243 263.758 337.38 262.202 339.575 258.761C339.773 258.496 339.588 258.589 339.346 258.554H339.342Z" fill="white"/>
<path d="M356.715 251.546C352.519 251.456 348.317 253.397 346.062 256.639C349.574 256.825 353.537 255.94 355.802 253.339C356.214 252.739 356.3 252.689 356.731 251.764C356.759 251.662 356.916 251.531 356.715 251.549V251.546Z" fill="white"/>
<path d="M365.016 245.899C362.681 247.074 360.559 248.699 359.302 250.876C361.982 250.751 364.56 249.877 366.688 248.389C368.443 247.379 369.751 245.864 370.823 244.271C369.403 244.271 369.54 244.349 368.322 244.598C367.147 244.868 366.028 245.286 365.016 245.899Z" fill="white"/>
<path d="M383.496 236.261C382.105 236.217 380.678 236.557 379.555 237.317C378.723 237.938 377.938 238.64 377.357 239.47C377.057 239.871 377.032 240.019 376.62 240.567C376.61 240.599 376.579 240.605 376.572 240.576C376.256 241.02 378.432 240.808 378.672 240.718C380.213 240.445 381.687 239.726 382.554 238.507C383.097 237.816 383.681 237.076 383.863 236.232C383.722 236.246 383.582 236.258 383.438 236.258C383.435 236.258 383.47 236.258 383.492 236.258L383.496 236.261Z" fill="white"/>
<path d="M394.729 228.782C394.343 229.04 393.839 229.11 393.421 229.334C392.793 229.635 392.081 229.749 391.437 230.018C389.245 230.944 387.653 232.816 386.747 234.816C389.325 234.522 393.07 233.53 394.516 230.747C394.71 230.201 394.985 229.65 395.026 229.072C395.026 228.913 395.004 228.75 394.975 228.594C394.895 228.66 394.812 228.724 394.726 228.782H394.729Z" fill="white"/>
<g clip-path="url(#clip0_512_5384)">
<path d="M204.979 326.509C209.154 327.008 214.268 327.359 217.043 327.678C219.475 327.932 221.912 328.163 224.348 328.392C225.286 328.427 226.234 328.704 227.165 328.544C229.508 327.882 228.623 325.127 226.65 325.288C226.626 325.287 226.604 325.289 226.58 325.288C225.212 325.163 223.845 325.023 222.478 324.901C218.071 324.472 212.431 323.907 206.8 323.405C206.801 323.346 206.801 323.287 206.802 323.229C206.831 322.036 206.984 320.846 207.136 319.66C207.535 316.271 208.874 310.196 209.712 305.463C210.048 303.511 210.118 302.903 210.229 301.904C210.23 301.559 210.284 301.207 210.278 300.862C210.305 300.6 210.252 300.332 210.105 300.105C209.747 299.512 208.834 299.301 208.185 299.655C207.866 299.847 207.609 300.105 207.519 300.449C207.519 300.442 207.528 300.427 207.54 300.403C207.484 300.543 207.439 300.688 207.384 300.831C207.095 301.588 206.886 302.363 206.687 303.141C205.912 306.323 205.272 309.528 204.631 312.734C204.085 315.411 203.657 318.104 203.332 320.807C203.216 322.718 202.401 325.724 204.981 326.505L204.979 326.509Z" fill="#C778DD" fill-opacity="0.866667"/>
</g>
<g clip-path="url(#clip1_512_5384)">
<path d="M405.07 215.986C400.892 216.462 395.846 217.298 393.073 217.626C390.649 217.939 388.226 218.275 385.806 218.614C384.889 218.795 383.895 218.744 383.038 219.114C380.954 220.293 382.571 222.755 384.436 222.146C384.46 222.142 384.481 222.135 384.504 222.131C385.863 221.937 387.224 221.758 388.581 221.562C392.964 220.966 398.579 220.217 404.166 219.409C404.182 219.466 404.197 219.523 404.213 219.58C404.515 220.74 404.695 221.927 404.876 223.11C405.427 226.481 405.81 232.668 406.307 237.441C406.522 239.407 406.622 240.012 406.791 241.004C406.885 241.338 406.93 241.691 407.032 242.023C407.078 242.283 407.203 242.53 407.408 242.716C407.919 243.208 408.86 243.202 409.39 242.71C409.646 242.452 409.823 242.143 409.815 241.789C409.817 241.796 409.813 241.813 409.808 241.838C409.823 241.69 409.827 241.539 409.84 241.389C409.911 240.589 409.898 239.791 409.876 238.992C409.747 235.736 409.481 232.486 409.214 229.237C409.003 226.521 408.673 223.817 408.24 221.126C407.825 219.25 407.782 216.154 405.07 215.99L405.07 215.986Z" fill="#C778DD"/>
</g>
<defs>
<clipPath id="clip0_512_5384">
<rect width="20.5408" height="34.5983" fill="white" transform="matrix(-0.88175 0.471717 -0.541241 -0.840867 229.225 327.514)"/>
</clipPath>
<clipPath id="clip1_512_5384">
<rect width="20.0939" height="35.4036" fill="white" transform="matrix(0.738992 -0.673714 0.738992 0.673714 381.329 220.584)"/>
</clipPath>
</defs>
</svg>
