<svg width="710" height="736" viewBox="0 0 710 736" fill="none" xmlns="http://www.w3.org/2000/svg">
<g clip-path="url(#clip0_512_8050)">
<path d="M453.175 334.39C453.641 334.215 454.111 333.839 454.557 333.494C455.106 333.122 455.669 332.808 456.214 332.398C458.022 331.099 459.662 329.314 461.005 327.446C462.509 325.284 463.455 322.943 463.912 320.78C460.491 323.548 459.305 325.112 456.822 327.951C456.327 328.5 455.849 329.062 455.422 329.664C454.52 330.954 453.548 332.347 453.317 333.682C453.24 333.919 453.233 334.159 453.084 334.399C453.114 334.396 453.142 334.396 453.173 334.388L453.175 334.39Z" fill="white"/>
<path d="M435.857 348.572C436.79 348.112 437.042 347.914 437.707 347.514C438.445 347.178 439.19 346.806 439.93 346.383C441.318 345.644 442.608 344.422 443.757 343.148C444.911 341.906 445.978 340.567 446.831 339.146C443.118 340.084 437.714 343.706 436.385 347.196C436.38 347.21 436.377 347.213 436.376 347.218C436.227 347.57 436.094 347.923 435.92 348.275C435.867 348.416 435.6 348.723 435.854 348.575L435.857 348.572Z" fill="white"/>
<path d="M421.945 358.266C423.469 358.15 425.209 357.103 426.75 355.788C427.814 354.909 428.866 353.919 429.697 352.772C426.362 352.819 423.206 354.229 420.529 355.898C420.103 356.131 419.69 356.446 419.285 356.767C419.127 356.917 418.812 357.059 419.017 357.156C419.69 357.935 420.671 358.401 421.945 358.266Z" fill="white"/>
<path d="M414.849 354.825C414.416 352.439 413.961 351.445 412.579 349.639C411.727 348.781 410.637 348.208 409.706 347.445C409.658 347.404 409.607 347.371 409.559 347.33C409.471 347.611 409.381 347.895 409.309 348.173C409.133 348.864 408.956 349.788 408.982 350.736C409.001 353.994 411.709 355.336 414.849 354.825Z" fill="white"/>
<path d="M407.446 339.525C408.062 340.571 408.605 341.688 409.38 342.579C410.508 340.296 411.247 337.745 410.652 336.055C410.564 335.732 410.471 335.406 410.279 335.174C410.19 335.021 410.085 334.877 409.983 334.735C409.983 334.735 409.979 334.731 409.98 334.726C409.98 334.726 409.978 334.724 409.979 334.719C410.441 332.461 409.263 331.073 408.068 330.122C407.537 331.681 407.21 333.214 406.977 334.699C406.917 335.04 407.012 334.542 407.039 334.419C407.016 334.534 406.992 334.654 406.969 334.768C406.965 334.789 406.96 334.807 406.956 334.827C406.959 334.812 406.963 334.799 406.963 334.787C406.948 334.873 406.933 334.942 406.92 335.001C406.915 335.026 406.911 335.052 406.906 335.077C406.909 335.062 406.912 335.042 406.917 335.016C406.855 335.267 406.796 335.392 406.656 336.377C406.657 336.613 406.678 336.836 406.71 337.052C406.722 337.191 406.753 337.359 406.808 337.447C406.81 337.449 406.814 337.453 406.813 337.458C406.828 337.488 406.836 337.524 406.846 337.556C406.863 337.612 406.888 337.664 406.911 337.718C406.911 337.718 406.911 337.718 406.913 337.72C406.881 337.64 406.859 337.585 406.881 337.657C406.894 337.698 406.9 337.738 406.91 337.782C406.91 338.075 406.956 338.343 407.04 338.587C407.114 338.938 407.287 339.223 407.441 339.515L407.446 339.525Z" fill="white"/>
<path d="M406.959 334.836C406.945 334.9 406.932 334.971 406.92 335.025C406.921 335.02 406.922 335.015 406.926 335.006C406.936 334.951 406.949 334.892 406.959 334.836Z" fill="white"/>
<path d="M409.63 316.19C409.596 316.137 409.554 316.089 409.512 316.041C409.372 315.445 409.077 314.959 408.621 314.663C408.585 314.625 408.538 314.59 408.477 314.525C408.295 314.865 408.186 315.204 408.052 315.545C408.045 315.562 408.044 315.567 408.039 315.58C407.844 315.997 407.656 316.413 407.431 316.827C406.934 318.136 406.583 319.477 406.49 320.685C406.449 322.93 406.945 324.902 407.699 326.618C410.602 322.099 410.814 318.164 409.63 316.19Z" fill="white"/>
<path d="M409.52 304.773C409.85 303.408 409.794 302.152 409.274 301.272C408.865 300.617 408.147 300.309 407.431 300.032C406.994 299.834 406.48 299.58 405.952 299.642C405.858 299.654 405.586 299.611 405.632 299.75C405.62 300.092 405.548 300.463 405.487 300.826C405.185 302.186 405.524 303.237 405.727 304.334C406.173 306.146 406.867 307.799 407.952 309.07C408.762 307.63 409.271 306.156 409.522 304.775L409.52 304.773Z" fill="white"/>
<path d="M390.793 300.616C391.158 300.676 391.534 300.716 391.919 300.734C393.324 300.801 395.011 299.878 396.581 299.35C396.612 299.342 396.686 299.325 396.819 299.288C397.851 299.019 398.9 298.689 399.915 298.487C400.892 298.305 401.83 298.231 402.808 298.044C402.306 294.742 398.939 294.116 395.196 296.346C394.314 296.904 393.487 297.678 392.701 298.454C391.998 299.086 391.3 299.732 390.679 300.47C390.491 300.646 390.701 300.589 390.793 300.616Z" fill="white"/>
<path d="M372.123 312.865C372.57 312.679 373.016 312.51 373.464 312.291C375.113 311.621 376.747 310.37 378.334 309.195C380.131 307.91 381.923 306.597 383.719 305.293C381.866 304.273 378.632 305.048 376.053 307.493C375.236 308.288 374.543 309.197 373.895 310.122C373.29 310.938 372.657 311.741 372.109 312.584C371.934 312.865 371.69 313.057 372.125 312.866L372.123 312.865Z" fill="white"/>
<path d="M356.836 325.144C356.988 325.077 357.14 325.022 357.292 324.955C357.735 324.766 358.179 324.584 358.625 324.38C361.659 322.998 364.42 320.043 366.722 317.169C364.66 317.521 362.319 318.591 360.254 320.369C358.847 321.695 357.43 323.311 356.722 325.01C356.655 325.204 356.611 325.283 356.84 325.148L356.836 325.144Z" fill="white"/>
<path d="M337.406 341.849C338.187 341.52 338.974 341.144 339.758 340.659C339.66 340.715 339.561 340.77 339.464 340.826C340.322 340.371 341.173 339.804 341.984 339.121C343.043 338.172 343.498 337.525 343.54 337.532C343.549 337.522 343.549 337.522 343.559 337.514C343.68 337.419 343.797 337.328 343.916 337.232C344.745 336.587 345.561 335.897 346.325 335.131C347.77 333.686 349.083 332.08 350.21 330.399C347.878 331.195 345.41 332.583 343.15 334.409C342.182 335.126 341.307 336.023 340.559 337.02C339.608 338.197 338.663 339.379 337.924 340.658C337.713 341.008 337.517 341.366 337.347 341.722C337.272 341.879 337.211 341.954 337.412 341.843L337.406 341.849Z" fill="white"/>
<path d="M320.695 356.399C320.5 356.663 320.355 356.942 320.236 357.219C320.565 357.077 320.676 357.045 320.993 356.993C321.447 356.831 321.924 356.472 322.381 356.23C322.401 356.219 322.422 356.207 322.445 356.192C322.458 356.186 322.47 356.179 322.493 356.169C325.927 354.743 329.15 351.106 331.311 347.652C328.393 348.537 324.937 350.348 322.537 353.436C322.301 353.776 321.992 354.063 321.757 354.405C321.318 355.013 321.04 355.65 320.771 356.283C320.764 356.295 320.762 356.305 320.756 356.317C320.735 356.34 320.71 356.377 320.692 356.402L320.695 356.399Z" fill="white"/>
<path d="M322.573 356.121C322.573 356.121 322.581 356.116 322.586 356.115C322.586 356.115 322.593 356.11 322.596 356.107C322.596 356.107 322.596 356.107 322.593 356.11L322.578 356.12L322.573 356.121Z" fill="white"/>
<path d="M306.662 371.164C308.208 370.287 309.607 369.107 310.894 367.648C312.485 365.926 313.965 364.077 315.126 362.11C312.564 363.333 309.718 365.048 307.681 367.678C306.791 369.026 306.102 369.85 305.037 371.895C304.329 372.797 306.36 371.335 306.659 371.167L306.662 371.164Z" fill="white"/>
<path d="M288.651 387.472C289.084 387.263 289.515 387.087 289.944 386.898C291.416 386.051 292.882 384.941 294.233 383.701C296.154 381.628 298.055 379.366 299.415 376.974C294.297 379.022 291.149 382.525 288.638 387.427C288.63 387.448 288.619 387.469 288.606 387.492C288.62 387.487 288.635 387.482 288.651 387.472Z" fill="white"/>
<path d="M270.969 404.531C272.818 403.197 274.308 401.909 276.23 399.871C278.675 397.496 281.15 395.107 283.242 392.373C279.567 393.953 275.69 396.776 272.967 400.596C272.035 401.895 271.207 403.244 270.528 404.61C270.155 405.235 270.672 404.7 270.972 404.528L270.969 404.531Z" fill="white"/>
<path d="M254.892 420.794C256.001 420.44 257.113 419.596 258.172 418.748C261.65 416.035 264.449 412.175 266.299 408.979C262.966 410.557 259.477 413.348 256.961 416.709C256.331 417.621 255.743 418.557 255.316 419.51C255.096 419.958 254.774 420.392 254.561 420.846C254.394 421.093 254.778 420.812 254.892 420.794Z" fill="white"/>
</g>
<g clip-path="url(#clip1_512_8050)">
<path d="M478.114 301.358C474.543 302.943 470.184 305.104 467.812 306.168C465.734 307.123 463.653 308.099 461.574 309.076C460.776 309.497 459.956 309.718 459.175 310.302C457.226 311.987 458.137 313.891 459.801 312.807C459.822 312.796 459.84 312.784 459.86 312.774C461.029 312.221 462.196 311.682 463.363 311.128C467.127 309.373 471.944 307.14 476.75 304.858C476.753 304.908 476.755 304.958 476.758 305.008C476.803 306.029 476.743 307.109 476.683 308.185C476.542 311.243 475.759 317.023 475.323 321.427C475.152 323.239 475.128 323.787 475.092 324.684C475.111 324.977 475.086 325.3 475.111 325.588C475.103 325.823 475.164 326.024 475.302 326.146C475.64 326.475 476.426 326.215 476.956 325.603C477.216 325.288 477.419 324.946 477.475 324.612C477.476 324.618 477.469 324.635 477.46 324.661C477.5 324.515 477.53 324.371 477.568 324.224C477.769 323.445 477.901 322.689 478.025 321.936C478.497 318.873 478.854 315.855 479.21 312.837C479.518 310.311 479.724 307.829 479.843 305.387C479.83 303.716 480.347 300.782 478.113 301.362L478.114 301.358Z" fill="#C778DD"/>
</g>
<g clip-path="url(#clip2_512_8050)">
<path d="M237.835 437.884C240.996 437.856 244.953 437.566 247.058 437.535C248.912 437.483 250.777 437.408 252.641 437.33C253.377 437.248 254.041 437.404 254.834 437.129C256.916 436.184 257.111 433.576 255.487 433.98C255.468 433.982 255.45 433.986 255.432 433.988C254.383 434.035 253.34 434.068 252.292 434.118C248.923 434.242 244.617 434.387 240.298 434.593C240.317 434.535 240.337 434.477 240.357 434.419C240.769 433.238 241.279 432.045 241.787 430.855C243.211 427.46 246.26 421.297 248.472 416.522C249.376 414.553 249.631 413.944 250.045 412.944C250.158 412.604 250.316 412.249 250.424 411.91C250.531 411.648 250.576 411.391 250.534 411.184C250.442 410.643 249.784 410.549 249.152 410.98C248.835 411.208 248.547 411.495 248.363 411.846C248.364 411.839 248.377 411.823 248.394 411.798C248.304 411.943 248.22 412.092 248.13 412.239C247.653 413.023 247.234 413.814 246.821 414.607C245.166 417.843 243.61 421.087 242.054 424.331C240.745 427.041 239.525 429.752 238.384 432.461C237.668 434.361 236.038 437.43 237.837 437.88L237.835 437.884Z" fill="#C778DD"/>
</g>
<defs>
<clipPath id="clip0_512_8050">
<rect width="253.52" height="96.5353" fill="white" transform="translate(479.075 306.845) rotate(131.015)"/>
</clipPath>
<clipPath id="clip1_512_8050">
<rect width="22.4636" height="23.4995" fill="white" transform="matrix(0.658877 -0.752251 0.748028 0.663668 457.488 312.163)"/>
</clipPath>
<clipPath id="clip2_512_8050">
<rect width="21.1859" height="26.9324" fill="white" transform="matrix(-0.829932 0.557864 -0.201031 -0.979585 256.811 435.856)"/>
</clipPath>
</defs>
</svg>
