<svg width="692" height="648" viewBox="0 0 692 648" fill="none" xmlns="http://www.w3.org/2000/svg">
<g clip-path="url(#clip0_512_6716)">
<path d="M280.454 266.251C277.986 265.976 275.273 266.345 272.748 267.561C275.478 268.978 277.104 269.111 279.978 269.251C280.64 269.275 281.278 269.37 281.937 269.396C282.954 269.392 284.011 269.203 285.038 268.826C285.66 268.62 285.663 268.613 286.487 268.276C286.628 268.231 286.748 268.132 286.885 268.074C286.779 268.015 286.666 267.963 286.59 267.874C285.016 266.662 282.685 266.361 280.451 266.253L280.454 266.251Z" fill="white"/>
<path d="M304.619 269.71C303.731 269.076 302.688 268.611 301.528 268.343C300.547 268.152 299.491 268.148 298.475 268.054C297.493 267.991 296.557 267.791 295.55 267.816C293.839 267.853 292.059 268.249 290.364 268.962C292.242 270.37 294.77 270.992 297.429 271.144C298.977 271.267 300.585 271.449 302.244 270.929C303.213 270.625 303.381 270.659 304.59 270C304.667 269.953 304.748 269.905 304.825 269.859C304.76 269.808 304.692 269.76 304.622 269.715L304.619 269.71Z" fill="white"/>
<path d="M326.417 273.679C328.067 270.937 323.932 270.347 321.99 269.869C320.871 269.597 319.676 269.492 318.503 269.345C315.762 268.886 312.726 268.939 309.768 270.155C310.932 271.061 312.373 271.713 313.965 272.045C314.966 272.23 316.032 272.251 317.056 272.384C318.968 272.658 318.767 272.531 320.411 272.903C321.305 273.125 322.237 273.286 323.079 273.597C323.079 273.597 323.079 273.597 323.08 273.599C323.179 273.647 323.269 273.7 323.36 273.76C323.333 274.549 323.442 275.816 323.545 276.216C323.574 276.387 323.609 276.557 323.648 276.725C323.714 276.686 323.78 276.64 323.845 276.598C324.958 275.82 325.863 274.784 326.422 273.679L326.417 273.679Z" fill="white"/>
<path d="M313.096 289.571C313.949 288.845 314.563 287.957 315.3 287.148C315.957 286.39 316.747 285.716 317.344 284.922C318.438 283.538 319.254 282.023 319.776 280.492C316.897 281.541 314.451 283.566 312.543 285.812C311.825 286.676 311.045 287.523 310.494 288.46C310.168 289.094 309.988 289.743 309.924 290.384C309.857 290.911 309.813 291.436 309.797 291.956C309.784 292.104 309.781 292.118 309.959 292.018C310.252 291.863 310.544 291.711 310.825 291.537C311.624 291.034 312.268 290.358 312.934 289.723C312.986 289.674 313.041 289.623 313.094 289.573L313.096 289.571Z" fill="white"/>
<path d="M304.358 296.741C300.287 298.301 296.328 301.798 295.773 305.61C296.595 305.21 297.464 304.915 298.241 304.408C301.186 302.513 303.35 299.627 304.358 296.741Z" fill="white"/>
<path d="M293.277 315.874C293.175 315.702 293.066 315.535 292.963 315.363C292.897 315.221 292.847 315.072 292.809 314.918C292.802 314.86 292.791 314.803 292.785 314.747C292.619 313.02 292.987 311.186 292.909 309.442C289.762 311.646 288.278 314.865 289.876 317.457C290.458 318.538 291.263 319.464 292.262 320.239C292.883 320.741 293.548 321.212 294.361 321.494C295.002 321.71 295.731 321.774 296.448 321.825C296.988 321.854 297.557 321.787 298.121 321.679C298.211 321.661 298.3 321.646 298.39 321.628C298.358 321.534 298.322 321.442 298.279 321.351C296.896 318.302 294.579 318.187 293.273 315.873L293.277 315.874Z" fill="white"/>
<path d="M312.605 324.429C311.631 324.132 310.712 323.74 309.693 323.524C308.049 323.184 306.242 323.19 304.418 323.546C305.227 324.679 306.337 325.626 307.672 326.283C308.679 326.759 309.814 327.058 310.891 327.434C311.928 327.713 312.877 328.15 313.983 328.302C315.268 328.526 316.898 328.367 318.096 327.917C317.468 326.95 316.623 326.119 315.581 325.501C314.681 325.015 313.621 324.751 312.606 324.431L312.605 324.429Z" fill="white"/>
<path d="M331.284 333.588C331.646 333.549 331.493 333.567 331.284 333.588Z" fill="white"/>
<path d="M333.092 332.354C332.096 331.181 330.476 330.609 328.872 330.153C326.659 329.3 324.343 328.437 321.614 328.695C322.297 330.056 323.307 331.284 324.72 332.066C326.261 332.748 327.876 333.398 329.691 333.621C330.14 333.692 330.621 333.66 331.104 333.607C331.104 333.607 331.104 333.607 331.106 333.605C331.118 333.604 331.128 333.601 331.136 333.602C331.136 333.602 331.142 333.599 331.143 333.601C331.19 333.594 331.235 333.591 331.282 333.586C331.275 333.587 331.271 333.587 331.264 333.588C332.483 333.454 331.687 333.571 333.401 333.319C333.478 333.297 333.665 333.322 333.599 333.233C333.484 332.911 333.305 332.618 333.088 332.354L333.092 332.354Z" fill="white"/>
<path d="M331.147 333.602C331.226 333.596 331.358 333.583 331.385 333.575C331.305 333.585 331.227 333.592 331.147 333.602Z" fill="white"/>
<path d="M339.263 336.411C339.275 336.425 339.289 336.435 339.304 336.446C339.245 336.395 339.187 336.343 339.13 336.288C339.175 336.33 339.218 336.369 339.266 336.409L339.263 336.411Z" fill="white"/>
<path d="M349.868 337.546C349.934 337.605 349.996 337.663 350.063 337.722C349.524 337.254 349.007 336.749 348.348 336.398C347.34 335.909 346.161 335.679 345.014 335.42C342.781 334.812 340.433 334.243 337.82 334.733C338.227 335.373 338.729 335.949 339.316 336.454C339.935 337.024 340.642 337.519 341.482 337.846C342.565 338.286 343.826 338.423 344.999 338.707C345.797 338.892 346.488 339.257 347.306 339.411C348.388 339.634 349.597 339.575 350.791 339.19C350.931 339.157 351.077 339.126 351.216 339.124C351.154 338.969 351.076 338.846 351.044 338.785C350.87 338.45 350.296 337.902 349.876 337.547L349.868 337.546Z" fill="white"/>
<path d="M369.629 346.044C369.59 345.933 369.285 345.495 369.116 345.247C369.1 345.221 369.083 345.192 369.067 345.166C368.992 345.041 368.883 344.942 368.77 344.846C368.456 344.458 368.085 344.107 367.668 343.808C366.754 343.254 365.674 342.898 364.669 342.459C363.083 341.675 361.024 340.727 357.425 341.351C358.75 343.318 360.451 344.49 363.236 345.561C364.078 345.892 364.85 346.352 365.837 346.443C365.992 346.467 366.148 346.487 366.305 346.506C366.182 346.49 365.738 346.428 366.055 346.474C366.311 346.511 366.553 346.543 366.447 346.529C366.515 346.538 366.582 346.546 366.647 346.557C366.931 346.594 366.511 346.538 366.409 346.524C366.691 346.564 366.972 346.605 367.261 346.631C367.484 346.665 367.729 346.623 367.966 346.597C368.057 346.599 368.19 346.567 368.85 346.482C369.01 346.469 369.264 346.437 369.697 346.392C369.955 346.398 369.649 346.155 369.632 346.042L369.629 346.044Z" fill="white"/>
<path d="M386.755 354.006C386.399 352.801 385.554 351.815 384.487 351.102C383.25 350.497 383.395 350.616 382.186 350.09C381.087 349.591 380.009 349.049 378.826 348.672C377.309 348.238 375.6 348.146 373.855 348.419C374.636 349.668 375.731 350.734 377.044 351.544C378.605 352.31 378.523 352.174 379.651 352.728C379.895 352.841 380.831 353.244 380.959 353.296C381.25 353.435 382.119 353.791 381.813 353.652C382.728 354.045 383.793 354.221 384.876 354.282C385.359 354.294 385.855 354.268 386.351 354.224C386.556 354.182 386.895 354.259 386.752 354.008L386.755 354.006Z" fill="white"/>
<path d="M404.145 361.451C404.101 361.104 403.997 360.775 403.838 360.477C403.436 359.717 402.788 359.097 402.042 358.609C401.403 358.226 400.642 357.992 399.952 357.668C398.95 357.26 397.978 356.798 396.893 356.517C395.336 356.166 393.64 356.07 391.908 356.261C392.55 357.416 393.53 358.373 394.721 359.083C395.69 359.645 396.837 359.976 397.887 360.432C400.245 361.533 401.322 361.52 403.977 361.588C404.154 361.604 404.181 361.635 404.145 361.445L404.145 361.451Z" fill="white"/>
<path d="M420.28 369.792C420.05 369.246 419.691 368.763 419.29 368.322C418.446 367.261 417.117 366.658 415.802 366.085C415.016 365.738 414.251 365.354 413.399 365.104C411.587 364.647 410.876 364.536 408.709 364.566C409.476 365.779 410.515 366.828 411.799 367.61C413.103 368.288 412.824 368.076 413.899 368.587C414.72 368.946 415.457 369.421 416.356 369.67C417.559 370.03 418.922 370.072 420.289 369.918C420.426 369.937 420.298 369.841 420.281 369.786L420.28 369.792Z" fill="white"/>
</g>
<g clip-path="url(#clip1_512_6716)">
<path d="M442.494 379.055C441.996 376.036 441.147 372.443 440.804 370.442C440.48 368.697 440.134 366.959 439.786 365.224C439.603 364.577 439.641 363.825 439.28 363.262C438.134 361.948 435.802 363.659 436.402 364.925C436.407 364.942 436.413 364.956 436.418 364.972C436.617 365.946 436.802 366.925 437.003 367.897C437.618 371.045 438.391 375.079 439.22 379.081C439.166 379.105 439.112 379.128 439.057 379.151C437.954 379.614 436.824 379.992 435.698 380.369C432.487 381.471 426.59 383.023 422.043 384.371C420.17 384.934 419.594 385.133 418.65 385.462C418.332 385.601 417.996 385.707 417.68 385.85C417.433 385.938 417.199 386.082 417.023 386.273C416.559 386.754 416.575 387.455 417.049 387.75C417.299 387.888 417.595 387.957 417.932 387.879C417.926 387.882 417.91 387.881 417.886 387.883C418.027 387.864 418.171 387.836 418.314 387.815C419.078 387.704 419.839 387.531 420.6 387.352C423.705 386.588 426.802 385.724 429.899 384.86C432.487 384.146 435.063 383.346 437.625 382.472C439.409 381.778 442.363 381.112 442.49 379.056L442.494 379.055Z" fill="#C778DD"/>
</g>
<g clip-path="url(#clip2_512_6716)">
<path d="M249.526 268.575C251.639 270.716 254.409 273.157 255.822 274.571C257.078 275.793 258.354 277.001 259.63 278.206C260.159 278.633 260.523 279.234 261.185 279.521C263.031 280.064 264.44 277.757 263.163 277.022C263.15 277.011 263.136 277.003 263.123 276.992C262.403 276.317 261.695 275.633 260.974 274.961C258.676 272.768 255.745 269.952 252.776 267.184C252.818 267.143 252.86 267.102 252.901 267.061C253.754 266.239 254.678 265.472 255.599 264.707C258.211 262.507 263.259 258.831 267.071 255.878C268.637 254.657 269.105 254.261 269.871 253.609C270.113 253.369 270.392 253.145 270.629 252.902C270.829 252.73 270.986 252.52 271.059 252.297C271.263 251.729 270.873 251.19 270.242 251.159C269.919 251.156 269.587 251.226 269.293 251.428C269.297 251.423 269.313 251.417 269.337 251.405C269.205 251.479 269.077 251.561 268.945 251.638C268.244 252.043 267.577 252.496 266.914 252.955C264.227 254.849 261.602 256.817 258.977 258.786C256.779 260.424 254.639 262.125 252.552 263.877C251.144 265.164 248.556 266.918 249.53 268.572L249.526 268.575Z" fill="#C778DD"/>
</g>
<defs>
<clipPath id="clip0_512_6716">
<rect width="192.765" height="103.194" fill="white" transform="translate(339.343 214.2) rotate(59.048)"/>
</clipPath>
<clipPath id="clip1_512_6716">
<rect width="15.4831" height="33.1747" fill="white" transform="matrix(0.844013 0.536323 -0.677518 0.735507 437.86 362.288)"/>
</clipPath>
<clipPath id="clip2_512_6716">
<rect width="17.5026" height="29.896" fill="white" transform="matrix(-0.998386 -0.0567931 0.312723 -0.949844 263.122 279.685)"/>
</clipPath>
</defs>
</svg>
