<svg width="363" height="373" viewBox="0 0 363 373" fill="none" xmlns="http://www.w3.org/2000/svg">
<g clip-path="url(#clip0_507_1858)">
<path d="M93.9175 345.145C96.7738 348.28 98.3641 352.413 98.3668 356.707C98.3694 361.002 96.7841 365.137 93.9317 368.276L93.9175 368.291C91.143 371.208 87.3612 372.882 83.3928 372.951C79.2904 372.946 75.357 371.27 72.4545 368.291L5.44593 295.084C5.12921 294.95 4.85222 294.733 4.64256 294.455C4.4329 294.176 4.2979 293.847 4.25101 293.498C4.02963 293.298 3.78209 293.131 3.51563 293.002C3.18441 292.348 2.95197 291.646 2.82629 290.921C2.63156 290.834 2.46176 290.697 2.33303 290.523C2.20431 290.35 2.12095 290.145 2.0909 289.929C1.86112 289.384 1.86112 288.641 1.6313 288.393C1.36608 288.01 1.19283 287.569 1.12573 287.104V280.71C1.12573 280.215 1.6313 279.917 1.6313 279.669C1.60942 278.962 1.76786 278.262 2.0909 277.637C2.55053 276.894 2.0909 277.34 2.0909 277.092C2.35625 276.266 2.7607 275.494 3.28581 274.812C3.28258 274.671 3.33401 274.534 3.42881 274.432C3.5236 274.33 3.65401 274.27 3.79138 274.267C4.10554 273.554 4.59693 272.938 5.21611 272.483L72.2247 199.176C73.6285 197.718 75.2997 196.56 77.1418 195.77C78.9838 194.98 80.9601 194.573 82.9562 194.573C84.9523 194.573 86.9286 194.98 88.7706 195.77C90.6127 196.56 92.2839 197.718 93.6877 199.176C96.5439 202.311 98.1343 206.444 98.137 210.739C98.1396 215.033 96.5543 219.168 93.7019 222.307L93.6877 222.323L37.1578 283.783L93.9175 345.145Z" fill="#C778DD"/>
<path d="M154.722 353.422L213.136 203.488C213.761 201.801 214.713 200.263 215.935 198.965C217.157 197.668 218.622 196.64 220.242 195.943C221.863 195.245 223.604 194.893 225.36 194.909C227.117 194.924 228.852 195.306 230.461 196.031L230.508 196.053C233.685 197.612 236.157 200.366 237.413 203.745C238.668 207.124 238.611 210.87 237.253 214.207L237.218 214.293L178.804 364.475C177.821 366.974 176.14 369.117 173.972 370.634C171.804 372.152 169.248 372.975 166.625 373C165.039 372.986 163.474 372.631 162.029 371.959C158.774 370.556 156.171 367.917 154.762 364.592C153.353 361.267 153.247 357.512 154.465 354.108C154.545 353.877 154.63 353.648 154.722 353.422Z" fill="#C778DD"/>
<path d="M352.392 293.002C351.887 293.671 351.318 294.286 350.692 294.836L283.683 368.093C282.291 369.564 280.626 370.734 278.787 371.534C276.948 372.334 274.972 372.748 272.975 372.752C270.971 372.745 268.989 372.329 267.143 371.529C265.298 370.729 263.624 369.562 262.22 368.093C259.364 364.958 257.774 360.825 257.771 356.53C257.768 352.236 259.354 348.101 262.206 344.962L262.22 344.946L318.75 283.486L262.22 222.025C259.364 218.89 257.774 214.757 257.771 210.462C257.768 206.168 259.354 202.033 262.206 198.894L262.22 198.879C263.624 197.42 265.295 196.263 267.137 195.473C268.979 194.683 270.956 194.276 272.952 194.276C274.948 194.276 276.924 194.683 278.766 195.473C280.608 196.263 282.279 197.42 283.683 198.879L350.692 272.185C351.316 272.719 351.886 273.317 352.392 273.969C352.622 273.969 352.622 274.515 352.622 274.515C353.059 275.252 353.458 276.013 353.817 276.794C353.817 276.794 354.047 276.794 354.047 277.34C354.204 278.127 354.451 278.892 354.782 279.619C354.782 279.917 355.012 279.917 355.012 280.413V282.197C355.012 282.445 355.241 283.238 355.241 283.486C355.241 283.733 355.012 284.526 355.012 284.774V286.856C355.012 286.856 354.782 286.856 354.782 287.352C354.482 288.109 354.236 288.887 354.047 289.681C354.047 289.681 353.817 289.681 353.817 290.425C353.817 291.168 353.082 291.961 352.622 293.002L352.392 293.002Z" fill="#C778DD"/>
<g opacity="0.1">
<path d="M93.9175 345.145C96.7738 348.28 98.3641 352.413 98.3668 356.707C98.3694 361.002 96.7841 365.137 93.9317 368.276L93.9175 368.291C91.143 371.208 87.3612 372.882 83.3928 372.951C79.2904 372.946 75.357 371.27 72.4545 368.291L5.44593 295.084C5.12921 294.95 4.85222 294.733 4.64256 294.455C4.4329 294.176 4.2979 293.847 4.25101 293.498C4.02963 293.298 3.78209 293.131 3.51563 293.002C3.18441 292.348 2.95197 291.646 2.82629 290.921C2.63156 290.834 2.46176 290.697 2.33303 290.523C2.20431 290.35 2.12095 290.145 2.0909 289.929C1.86112 289.384 1.86112 288.641 1.6313 288.393C1.36608 288.01 1.19283 287.569 1.12573 287.104V280.71C1.12573 280.215 1.6313 279.917 1.6313 279.669C1.60942 278.962 1.76786 278.262 2.0909 277.637C2.55053 276.894 2.0909 277.34 2.0909 277.092C2.35625 276.266 2.7607 275.494 3.28581 274.812C3.28258 274.671 3.33401 274.534 3.42881 274.432C3.5236 274.33 3.65401 274.27 3.79138 274.267C4.10554 273.554 4.59693 272.938 5.21611 272.483L72.2247 199.176C73.6285 197.718 75.2997 196.56 77.1418 195.77C78.9838 194.98 80.9601 194.573 82.9562 194.573C84.9523 194.573 86.9286 194.98 88.7706 195.77C90.6127 196.56 92.2839 197.718 93.6877 199.176C96.5439 202.311 98.1343 206.444 98.137 210.739C98.1396 215.033 96.5543 219.168 93.7019 222.307L93.6877 222.323L37.1578 283.783L93.9175 345.145Z" fill="black"/>
<path d="M154.722 353.422L213.136 203.488C213.761 201.801 214.713 200.263 215.935 198.965C217.157 197.668 218.622 196.64 220.242 195.943C221.863 195.245 223.604 194.893 225.36 194.909C227.117 194.924 228.852 195.306 230.461 196.031L230.508 196.053C233.685 197.612 236.157 200.366 237.413 203.745C238.668 207.124 238.611 210.87 237.253 214.207L237.218 214.293L178.804 364.475C177.821 366.974 176.14 369.117 173.972 370.634C171.804 372.152 169.248 372.975 166.625 373C165.039 372.986 163.474 372.631 162.029 371.959C158.774 370.556 156.171 367.917 154.762 364.592C153.353 361.267 153.247 357.512 154.465 354.108C154.545 353.877 154.63 353.648 154.722 353.422Z" fill="black"/>
<path d="M352.392 293.002C351.887 293.671 351.318 294.286 350.692 294.836L283.683 368.093C282.291 369.564 280.626 370.734 278.787 371.534C276.948 372.334 274.972 372.748 272.975 372.752C270.971 372.745 268.989 372.329 267.143 371.529C265.298 370.729 263.624 369.562 262.22 368.093C259.364 364.958 257.774 360.825 257.771 356.53C257.768 352.236 259.354 348.101 262.206 344.962L262.22 344.946L318.75 283.486L262.22 222.025C259.364 218.89 257.774 214.757 257.771 210.462C257.768 206.168 259.354 202.033 262.206 198.894L262.22 198.879C263.624 197.42 265.295 196.263 267.137 195.473C268.979 194.683 270.956 194.276 272.952 194.276C274.948 194.276 276.924 194.683 278.766 195.473C280.608 196.263 282.279 197.42 283.683 198.879L350.692 272.185C351.316 272.719 351.886 273.317 352.392 273.969C352.622 273.969 352.622 274.515 352.622 274.515C353.059 275.252 353.458 276.013 353.817 276.794C353.817 276.794 354.047 276.794 354.047 277.34C354.204 278.127 354.451 278.892 354.782 279.619C354.782 279.917 355.012 279.917 355.012 280.413V282.197C355.012 282.445 355.241 283.238 355.241 283.486C355.241 283.733 355.012 284.526 355.012 284.774V286.856C355.012 286.856 354.782 286.856 354.782 287.352C354.482 288.109 354.236 288.887 354.047 289.681C354.047 289.681 353.817 289.681 353.817 290.425C353.817 291.168 353.082 291.961 352.622 293.002L352.392 293.002Z" fill="black"/>
</g>
<path d="M101.708 345.145C104.564 348.28 106.154 352.413 106.157 356.707C106.16 361.002 104.574 365.137 101.722 368.276L101.708 368.291C98.9333 371.208 95.1515 372.882 91.1831 372.95C87.0807 372.946 83.1473 371.27 80.2448 368.291L13.2362 295.084C12.9195 294.95 12.6425 294.733 12.4328 294.455C12.2232 294.176 12.0882 293.847 12.0413 293.498C11.8199 293.298 11.5724 293.131 11.3059 293.002C10.9747 292.348 10.7422 291.646 10.6166 290.921C10.4218 290.834 10.252 290.697 10.1233 290.523C9.99459 290.35 9.91124 290.145 9.8812 289.929C9.65138 289.384 9.65138 288.641 9.42157 288.393C9.15635 288.01 8.98311 287.569 8.91603 287.104V280.71C8.91603 280.215 9.42157 279.917 9.42157 279.669C9.39968 278.962 9.55813 278.262 9.8812 277.637C10.3408 276.894 9.8812 277.34 9.8812 277.092C10.1465 276.266 10.551 275.494 11.0761 274.812C11.0729 274.671 11.1243 274.534 11.2191 274.432C11.3139 274.33 11.4443 274.27 11.5816 274.267C11.8958 273.554 12.3872 272.938 13.0064 272.483L80.015 199.176C81.4187 197.718 83.09 196.56 84.932 195.77C86.7741 194.98 88.7504 194.573 90.7465 194.573C92.7426 194.573 94.7188 194.98 96.5609 195.77C98.403 196.56 100.074 197.718 101.478 199.176C104.334 202.311 105.925 206.444 105.927 210.739C105.93 215.033 104.345 219.168 101.492 222.307L101.478 222.323L44.948 283.783L101.708 345.145Z" fill="#C778DD"/>
<path d="M160.367 353.422L218.781 203.488C219.407 201.801 220.359 200.263 221.581 198.965C222.802 197.668 224.268 196.64 225.888 195.943C227.508 195.245 229.249 194.893 231.006 194.909C232.763 194.924 234.498 195.306 236.107 196.031L236.154 196.053C239.331 197.612 241.803 200.366 243.058 203.745C244.314 207.124 244.256 210.87 242.899 214.207L242.864 214.293L184.45 364.475C183.467 366.974 181.785 369.117 179.618 370.634C177.45 372.152 174.893 372.975 172.27 373C170.685 372.986 169.119 372.631 167.675 371.959C164.42 370.556 161.817 367.917 160.408 364.592C158.999 361.267 158.892 357.512 160.11 354.108C160.19 353.877 160.276 353.648 160.367 353.422Z" fill="#C778DD"/>
<path d="M160.367 353.422L218.781 203.488C219.407 201.801 220.359 200.263 221.581 198.965C222.802 197.668 224.268 196.64 225.888 195.943C227.508 195.245 229.249 194.893 231.006 194.909C232.763 194.924 234.498 195.306 236.107 196.031L236.154 196.053C239.331 197.612 241.803 200.366 243.058 203.745C244.314 207.124 244.256 210.87 242.899 214.207L242.864 214.293L184.45 364.475C183.467 366.974 181.785 369.117 179.618 370.634C177.45 372.152 174.893 372.975 172.27 373C170.685 372.986 169.119 372.631 167.675 371.959C164.42 370.556 161.817 367.917 160.408 364.592C158.999 361.267 158.892 357.512 160.11 354.108C160.19 353.877 160.276 353.648 160.367 353.422Z" fill="#C778DD"/>
<path d="M359.025 293.002C358.52 293.671 357.95 294.286 357.324 294.836L290.316 368.093C288.924 369.564 287.259 370.734 285.42 371.534C283.581 372.334 281.605 372.749 279.607 372.752C277.604 372.745 275.622 372.329 273.776 371.529C271.93 370.73 270.257 369.562 268.853 368.093C265.997 364.958 264.406 360.825 264.404 356.53C264.401 352.236 265.986 348.101 268.839 344.962L268.853 344.946L325.383 283.486L268.853 222.025C265.997 218.89 264.406 214.757 264.404 210.463C264.401 206.168 265.986 202.033 268.839 198.894L268.853 198.879C270.257 197.42 271.928 196.263 273.77 195.473C275.612 194.683 277.588 194.276 279.584 194.276C281.581 194.276 283.557 194.683 285.399 195.473C287.241 196.263 288.912 197.42 290.316 198.879L357.324 272.185C357.949 272.719 358.518 273.317 359.025 273.969C359.255 273.969 359.255 274.515 359.255 274.515C359.692 275.252 360.091 276.013 360.45 276.794C360.45 276.794 360.68 276.794 360.68 277.34C360.837 278.127 361.084 278.892 361.415 279.619C361.415 279.917 361.645 279.917 361.645 280.413V282.197C361.645 282.445 361.874 283.238 361.874 283.486C361.874 283.733 361.645 284.526 361.645 284.774V286.856C361.645 286.856 361.415 286.856 361.415 287.352C361.115 288.109 360.869 288.887 360.68 289.681C360.68 289.681 360.45 289.681 360.45 290.425C360.45 291.168 359.715 291.961 359.255 293.002L359.025 293.002Z" fill="#C778DD"/>
<path opacity="0.1" d="M219.388 243.569C225.832 238.349 231.435 232.117 235.99 225.104C239.282 219.896 241.945 214.296 243.919 208.426L243.915 208.339C243.704 207.598 243.625 206.825 243.68 206.056C243.3 203.89 242.418 201.85 241.108 200.108C239.798 198.367 238.099 196.976 236.154 196.053L236.107 196.031C234.498 195.306 232.763 194.924 231.006 194.909C229.249 194.893 227.508 195.245 225.888 195.943C224.268 196.64 222.802 197.668 221.58 198.966C220.359 200.263 219.407 201.801 218.781 203.488L190.684 275.606C199.022 263.829 208.653 253.079 219.388 243.569Z" fill="black"/>
<path opacity="0.1" d="M160.113 363.776C160.195 364.016 160.282 364.253 160.377 364.487C160.518 364.835 160.674 365.176 160.841 365.511L160.901 365.636C161.082 365.989 161.277 366.334 161.486 366.669L161.522 366.73C161.742 367.08 161.977 367.419 162.227 367.748L162.235 367.76C163.531 369.469 165.215 370.825 167.14 371.71C169.983 370.817 172.561 369.204 174.638 367.018C177.986 363.44 179.215 359.012 180.31 352.217C181.409 345.521 182.013 338.749 182.117 331.959C182.026 323.932 182.009 312.353 182.36 296.972C179.234 306.339 175.65 315.538 171.622 324.534C167.049 333.804 163.283 343.471 160.367 353.422L159.977 354.683C159.178 357.666 159.225 360.82 160.113 363.776Z" fill="black"/>
<path opacity="0.1" d="M160.113 363.776C160.195 364.016 160.282 364.253 160.377 364.487C160.518 364.835 160.674 365.176 160.841 365.511L160.901 365.636C161.082 365.989 161.277 366.334 161.486 366.669L161.522 366.73C161.742 367.08 161.977 367.419 162.227 367.748L162.235 367.76C163.531 369.469 165.215 370.825 167.14 371.71C169.983 370.817 172.561 369.204 174.638 367.018C177.986 363.44 179.215 359.012 180.31 352.217C181.409 345.521 182.013 338.749 182.117 331.959C182.026 323.932 182.009 312.353 182.36 296.972C179.234 306.339 175.65 315.538 171.622 324.534C167.049 333.804 163.283 343.471 160.367 353.422L159.977 354.683C159.178 357.666 159.225 360.82 160.113 363.776Z" fill="black"/>
<path opacity="0.1" d="M219.388 243.569C225.832 238.349 231.435 232.117 235.99 225.104C239.282 219.896 241.945 214.296 243.919 208.426L243.915 208.339C243.704 207.598 243.625 206.825 243.68 206.056C243.3 203.89 242.418 201.85 241.108 200.108C239.798 198.367 238.099 196.976 236.154 196.053L236.107 196.031C234.498 195.306 232.763 194.924 231.006 194.909C229.249 194.893 227.508 195.245 225.888 195.943C224.268 196.64 222.802 197.668 221.58 198.966C220.359 200.263 219.407 201.801 218.781 203.488L190.684 275.606C199.022 263.829 208.653 253.079 219.388 243.569Z" fill="black"/>
<path opacity="0.1" d="M115.578 99.6801L115.543 99.6605C115.464 99.6266 115.382 99.5983 115.299 99.5761C115.263 99.5651 115.228 99.5495 115.19 99.5409C115.127 99.5292 115.064 99.5209 115 99.5159C114.943 99.509 114.889 99.4955 114.831 99.4939H27.2051C26.7045 99.4972 26.2258 99.7046 25.8741 100.071C25.5224 100.437 25.3266 100.931 25.3297 101.445V175.721C25.3289 176.109 25.4404 176.489 25.65 176.812C25.8526 177.125 26.1392 177.37 26.4751 177.519C26.7058 177.62 26.9541 177.672 27.2051 177.672H114.79C115.041 177.672 115.289 177.62 115.52 177.519C115.856 177.37 116.143 177.125 116.345 176.812C116.555 176.489 116.666 176.109 116.665 175.721V101.445C116.666 101.076 116.564 100.713 116.371 100.4C116.179 100.088 115.904 99.838 115.578 99.6801Z" fill="black"/>
<path opacity="0.1" d="M360.976 90.8796H269.101C268.27 90.8796 267.597 91.5712 267.597 92.4243V151.217C267.597 152.07 268.27 152.761 269.101 152.761H360.976C361.806 152.761 362.479 152.07 362.479 151.217V92.4243C362.479 91.5712 361.806 90.8796 360.976 90.8796Z" fill="black"/>
<path opacity="0.1" d="M96.9786 26.1262H147.117C148.484 26.1262 149.795 26.6842 150.762 27.6775C151.728 28.6708 152.271 30.018 152.271 31.4227V59.2917C152.271 60.6964 151.728 62.0436 150.762 63.0369C149.795 64.0302 148.484 64.5882 147.117 64.5882H96.9787C95.6116 64.5882 94.3004 64.0302 93.3337 63.0369C92.367 62.0436 91.8239 60.6964 91.8239 59.2917V31.4227C91.8239 30.018 92.367 28.6708 93.3337 27.6775C94.3004 26.6843 95.6115 26.1262 96.9786 26.1262Z" fill="black"/>
<path opacity="0.1" d="M15.597 39.9418H46.1258C46.4863 39.9219 46.8244 39.7561 47.0662 39.4808C47.308 39.2054 47.434 38.8429 47.4164 38.4724V12.0243C47.4542 11.8201 47.4472 11.6099 47.396 11.4089C47.3448 11.2078 47.2507 11.021 47.1205 10.862C46.995 10.7264 46.8372 10.6267 46.6628 10.5729C46.4884 10.519 46.3033 10.5128 46.1258 10.5549H15.597C15.2365 10.5749 14.8985 10.7407 14.6566 11.016C14.4148 11.2913 14.2889 11.6538 14.3064 12.0243V38.4724C14.2889 38.8429 14.4148 39.2054 14.6566 39.4807C14.8984 39.7561 15.2365 39.9219 15.597 39.9418Z" fill="black"/>
<path opacity="0.1" d="M311.143 64.5996V15.765C311.143 15.5208 311.074 15.2818 310.946 15.0761C310.818 14.8705 310.635 14.7068 310.419 14.6045L310.396 14.5915C310.343 14.5695 310.29 14.5512 310.235 14.5367L310.16 14.5129C310.119 14.5054 310.077 14.5 310.035 14.4968C309.997 14.4921 309.96 14.4832 309.921 14.4822H251.575C251.244 14.4822 250.926 14.6174 250.692 14.858C250.458 15.0985 250.326 15.4248 250.326 15.765V64.5997C250.326 64.94 250.458 65.2663 250.692 65.5069C250.926 65.7475 251.244 65.8827 251.575 65.8828H309.894C310.058 65.8828 310.221 65.8496 310.372 65.7851C310.524 65.7206 310.661 65.6261 310.777 65.507C310.893 65.3878 310.985 65.2463 311.048 65.0907C311.111 64.935 311.143 64.7681 311.143 64.5996Z" fill="black"/>
<path d="M20.6216 94.6382H111.148C111.403 94.6382 111.655 94.6897 111.89 94.7898C112.125 94.8899 112.339 95.0366 112.519 95.2215C112.699 95.4065 112.842 95.626 112.939 95.8677C113.036 96.1093 113.087 96.3683 113.087 96.6298V172.434C113.087 172.962 112.882 173.468 112.519 173.842C112.155 174.215 111.662 174.425 111.148 174.425H20.6216C20.1075 174.425 19.6145 174.215 19.251 173.842C18.8875 173.468 18.6832 172.962 18.6832 172.434V96.6298C18.6832 96.1016 18.8875 95.595 19.251 95.2215C19.6145 94.848 20.1075 94.6382 20.6216 94.6382Z" fill="#C778DD"/>
<path d="M113.087 96.6298V172.434C113.087 172.695 113.036 172.954 112.939 173.196C112.842 173.437 112.699 173.657 112.519 173.842C112.339 174.027 112.125 174.174 111.89 174.274C111.655 174.374 111.403 174.425 111.148 174.425H20.6216C20.3671 174.425 20.115 174.374 19.8798 174.274C19.6446 174.174 19.431 174.027 19.251 173.842C19.071 173.657 18.9282 173.437 18.8308 173.196C18.7334 172.954 18.6832 172.695 18.6832 172.434V96.6298C18.6855 96.1023 18.8904 95.597 19.2534 95.224C19.6165 94.851 20.1082 94.6405 20.6216 94.6382H111.191C111.697 94.6517 112.178 94.8673 112.531 95.2391C112.885 95.6109 113.085 96.1097 113.087 96.6298Z" fill="#C778DD"/>
<path d="M110.897 102.753H20.5143V172.19H110.897V102.753Z" fill="#C778DD"/>
<path opacity="0.5" d="M24.8464 114.74H48.3859C48.497 114.74 48.6071 114.717 48.7098 114.673C48.8125 114.63 48.9058 114.566 48.9844 114.485C49.063 114.404 49.1253 114.308 49.1679 114.203C49.2104 114.097 49.2323 113.984 49.2323 113.87C49.2323 113.756 49.2104 113.643 49.1679 113.537C49.1253 113.432 49.063 113.336 48.9844 113.255C48.9058 113.174 48.8125 113.11 48.7098 113.066C48.6071 113.023 48.497 113 48.3859 113H24.8464C24.7353 113 24.6252 113.023 24.5225 113.066C24.4198 113.11 24.3265 113.174 24.2479 113.255C24.1693 113.336 24.107 113.432 24.0644 113.537C24.0219 113.643 24 113.756 24 113.87C24 113.984 24.0219 114.097 24.0644 114.203C24.107 114.308 24.1693 114.404 24.2479 114.485C24.3265 114.566 24.4198 114.63 24.5225 114.673C24.6252 114.717 24.7353 114.74 24.8464 114.74Z" fill="white"/>
<path opacity="0.5" d="M95.7092 160.945H43.34C43.1155 160.945 42.9002 161.036 42.7415 161.2C42.5828 161.363 42.4936 161.584 42.4936 161.815C42.4936 162.045 42.5828 162.266 42.7415 162.429C42.9002 162.593 43.1155 162.684 43.34 162.684H95.7092C95.9336 162.684 96.1489 162.593 96.3077 162.429C96.4664 162.266 96.5556 162.045 96.5556 161.815C96.5556 161.584 96.4664 161.363 96.3077 161.2C96.1489 161.036 95.9336 160.945 95.7092 160.945Z" fill="white"/>
<path d="M107.212 160.945H100.737C100.626 160.945 100.516 160.967 100.413 161.011C100.31 161.055 100.217 161.119 100.139 161.2C100.06 161.28 99.9976 161.376 99.955 161.482C99.9125 161.587 99.8906 161.7 99.8906 161.815C99.8906 161.929 99.9125 162.042 99.955 162.147C99.9976 162.253 100.06 162.349 100.139 162.429C100.217 162.51 100.31 162.574 100.413 162.618C100.516 162.662 100.626 162.684 100.737 162.684H107.212C107.323 162.684 107.433 162.662 107.536 162.618C107.639 162.574 107.732 162.51 107.811 162.429C107.889 162.349 107.952 162.253 107.994 162.147C108.037 162.042 108.059 161.929 108.059 161.815C108.059 161.7 108.037 161.587 107.994 161.482C107.952 161.376 107.889 161.28 107.811 161.2C107.732 161.119 107.639 161.055 107.536 161.011C107.433 160.967 107.323 160.945 107.212 160.945Z" fill="white"/>
<path d="M59.1007 157.179H80.1855C80.41 157.179 80.6253 157.087 80.784 156.924C80.9427 156.761 81.0319 156.54 81.0319 156.309C81.0319 156.079 80.9427 155.857 80.784 155.694C80.6253 155.531 80.41 155.439 80.1855 155.439H59.1007C58.9895 155.439 58.8795 155.462 58.7768 155.506C58.6741 155.549 58.5808 155.613 58.5022 155.694C58.4236 155.775 58.3612 155.871 58.3187 155.976C58.2762 156.082 58.2543 156.195 58.2543 156.309C58.2543 156.423 58.2762 156.536 58.3187 156.642C58.3612 156.747 58.4236 156.843 58.5022 156.924C58.5808 157.005 58.6741 157.069 58.7768 157.113C58.8795 157.156 58.9895 157.179 59.1007 157.179Z" fill="white"/>
<path opacity="0.5" d="M95.7092 157.179C95.9336 157.179 96.1489 157.087 96.3077 156.924C96.4664 156.761 96.5556 156.54 96.5556 156.309C96.5556 156.079 96.4664 155.857 96.3077 155.694C96.1489 155.531 95.9336 155.439 95.7092 155.439H83.7489C83.6377 155.439 83.5277 155.462 83.425 155.506C83.3223 155.549 83.229 155.613 83.1504 155.694C83.0718 155.775 83.0094 155.871 82.9669 155.976C82.9244 156.082 82.9025 156.195 82.9025 156.309C82.9025 156.423 82.9244 156.536 82.9669 156.642C83.0094 156.747 83.0718 156.843 83.1504 156.924C83.229 157.005 83.3223 157.069 83.425 157.113C83.5277 157.156 83.6377 157.179 83.7489 157.179H95.7092Z" fill="white"/>
<path opacity="0.5" d="M107.212 155.439H100.855C100.744 155.439 100.634 155.462 100.532 155.506C100.429 155.549 100.336 155.613 100.257 155.694C100.178 155.775 100.116 155.871 100.073 155.976C100.031 156.082 100.009 156.195 100.009 156.309C100.009 156.423 100.031 156.536 100.073 156.642C100.116 156.747 100.178 156.843 100.257 156.924C100.336 157.005 100.429 157.069 100.532 157.113C100.634 157.156 100.744 157.179 100.855 157.179H107.212C107.323 157.179 107.433 157.156 107.536 157.113C107.639 157.069 107.732 157.005 107.811 156.924C107.889 156.843 107.952 156.747 107.994 156.642C108.037 156.536 108.059 156.423 108.059 156.309C108.059 156.195 108.037 156.082 107.994 155.976C107.952 155.871 107.889 155.775 107.811 155.694C107.732 155.613 107.639 155.549 107.536 155.506C107.433 155.462 107.323 155.439 107.212 155.439Z" fill="white"/>
<path d="M95.7938 149.934H67.5651C67.3406 149.934 67.1253 150.026 66.9665 150.189C66.8078 150.352 66.7186 150.573 66.7186 150.804C66.7186 151.035 66.8078 151.256 66.9665 151.419C67.1253 151.582 67.3406 151.674 67.5651 151.674H95.7684C95.9929 151.674 96.2082 151.582 96.3669 151.419C96.5257 151.256 96.6148 151.035 96.6148 150.804C96.6148 150.573 96.5257 150.352 96.3669 150.189C96.2082 150.026 95.9929 149.934 95.7684 149.934H95.7938Z" fill="white"/>
<path d="M107.212 149.934H100.779C100.555 149.934 100.34 150.026 100.181 150.189C100.022 150.352 99.9329 150.573 99.9329 150.804C99.9329 151.035 100.022 151.256 100.181 151.419C100.34 151.582 100.555 151.674 100.779 151.674H107.212C107.437 151.674 107.652 151.582 107.811 151.419C107.97 151.256 108.059 151.035 108.059 150.804C108.059 150.573 107.97 150.352 107.811 150.189C107.652 150.026 107.437 149.934 107.212 149.934Z" fill="white"/>
<path opacity="0.5" d="M80.2617 145.299C80.2616 145.068 80.1725 144.847 80.0137 144.684C79.855 144.521 79.6397 144.429 79.4152 144.429H50.6362C50.5246 144.428 50.4139 144.45 50.3106 144.494C50.2073 144.537 50.1133 144.601 50.0341 144.682C49.955 144.763 49.8921 144.859 49.8492 144.965C49.8064 145.07 49.7843 145.184 49.7843 145.299C49.7843 145.413 49.8064 145.527 49.8492 145.633C49.8921 145.739 49.955 145.835 50.0341 145.916C50.1133 145.996 50.2073 146.06 50.3106 146.104C50.4139 146.147 50.5246 146.169 50.6362 146.168H79.4152C79.6397 146.168 79.855 146.077 80.0137 145.914C80.1725 145.751 80.2617 145.529 80.2617 145.299Z" fill="white"/>
<path opacity="0.5" d="M84.6293 144.429C84.4057 144.43 84.1918 144.523 84.0343 144.686C83.8767 144.849 83.7882 145.069 83.7882 145.299C83.7882 145.528 83.8767 145.749 84.0343 145.912C84.1918 146.075 84.4057 146.167 84.6293 146.168H95.7853C95.8969 146.169 96.0076 146.147 96.1109 146.104C96.2142 146.06 96.3082 145.996 96.3874 145.916C96.4665 145.835 96.5294 145.739 96.5723 145.633C96.6151 145.527 96.6372 145.413 96.6372 145.299C96.6372 145.184 96.6151 145.07 96.5723 144.965C96.5294 144.859 96.4665 144.763 96.3874 144.682C96.3082 144.601 96.2142 144.537 96.1109 144.494C96.0076 144.45 95.8969 144.428 95.7853 144.429H84.6293Z" fill="white"/>
<path d="M107.212 144.429H100.856C100.632 144.43 100.418 144.523 100.26 144.686C100.103 144.849 100.014 145.069 100.014 145.299C100.014 145.528 100.103 145.749 100.26 145.912C100.418 146.075 100.632 146.167 100.856 146.168H107.212C107.436 146.167 107.65 146.075 107.807 145.912C107.965 145.749 108.053 145.528 108.053 145.299C108.053 145.069 107.965 144.849 107.807 144.686C107.65 144.523 107.436 144.43 107.212 144.429Z" fill="white"/>
<path d="M86.1867 140.663H91.7225C91.9469 140.663 92.1622 140.572 92.321 140.409C92.4797 140.245 92.5689 140.024 92.5689 139.794C92.5689 139.563 92.4797 139.342 92.321 139.179C92.1622 139.015 91.9469 138.924 91.7225 138.924H86.1867C85.9622 138.924 85.7469 139.015 85.5882 139.179C85.4295 139.342 85.3403 139.563 85.3403 139.794C85.3403 140.024 85.4295 140.245 85.5882 140.409C85.7469 140.572 85.9622 140.663 86.1867 140.663Z" fill="white"/>
<path opacity="0.5" d="M95.6838 140.663H107.212C107.437 140.663 107.652 140.572 107.811 140.409C107.969 140.245 108.059 140.024 108.059 139.794C108.059 139.563 107.969 139.342 107.811 139.179C107.652 139.015 107.437 138.924 107.212 138.924H95.6838C95.4593 138.924 95.244 139.015 95.0852 139.179C94.9265 139.342 94.8373 139.563 94.8373 139.794C94.8373 140.024 94.9265 140.245 95.0852 140.409C95.244 140.572 95.4593 140.663 95.6838 140.663Z" fill="white"/>
<path d="M55.1648 134.288C55.1648 134.058 55.0756 133.836 54.9169 133.673C54.7581 133.51 54.5428 133.418 54.3183 133.418H25.2432C25.132 133.418 25.0219 133.441 24.9192 133.485C24.8166 133.528 24.7232 133.592 24.6446 133.673C24.566 133.754 24.5037 133.85 24.4612 133.955C24.4186 134.061 24.3967 134.174 24.3967 134.288C24.3967 134.402 24.4186 134.515 24.4612 134.621C24.5037 134.727 24.566 134.822 24.6446 134.903C24.7232 134.984 24.8166 135.048 24.9192 135.092C25.0219 135.135 25.132 135.158 25.2432 135.158H54.2929C54.404 135.161 54.5147 135.142 54.6186 135.102C54.7226 135.061 54.8177 135 54.8986 134.922C54.9796 134.843 55.0447 134.749 55.0903 134.645C55.1359 134.541 55.1611 134.429 55.1644 134.315L55.1648 134.288Z" fill="white"/>
<path d="M357.177 87.7097H265.302C264.472 87.7097 263.799 88.4013 263.799 89.2544V148.047C263.799 148.9 264.472 149.592 265.302 149.592H357.177C358.007 149.592 358.681 148.9 358.681 148.047V89.2544C358.681 88.4013 358.007 87.7097 357.177 87.7097Z" fill="#C778DD"/>
<path d="M357.177 87.7097H265.302C264.472 87.7097 263.799 88.4013 263.799 89.2544V148.047C263.799 148.9 264.472 149.592 265.302 149.592H357.177C358.007 149.592 358.681 148.9 358.681 148.047V89.2544C358.681 88.4013 358.007 87.7097 357.177 87.7097Z" fill="#1B00B3"/>
<path d="M357.125 93.9963H265.361V147.851H357.125V93.9963Z" fill="#C778DD"/>
<path d="M283.592 105.302H268.906C268.733 105.303 268.567 105.374 268.445 105.501C268.323 105.627 268.254 105.798 268.254 105.976C268.254 106.154 268.323 106.325 268.445 106.451C268.567 106.578 268.733 106.649 268.906 106.651H283.592C283.765 106.649 283.931 106.578 284.053 106.451C284.175 106.325 284.243 106.154 284.243 105.976C284.243 105.798 284.175 105.627 284.053 105.501C283.931 105.374 283.765 105.303 283.592 105.302Z" fill="white"/>
<path d="M283.592 109.511H270.875C270.702 109.512 270.536 109.584 270.414 109.71C270.292 109.836 270.224 110.007 270.224 110.185C270.224 110.363 270.292 110.534 270.414 110.661C270.536 110.787 270.702 110.859 270.875 110.86H283.592C283.765 110.859 283.931 110.787 284.053 110.661C284.175 110.534 284.243 110.363 284.243 110.185C284.243 110.007 284.175 109.836 284.053 109.71C283.931 109.584 283.765 109.512 283.592 109.511Z" fill="white"/>
<path opacity="0.5" d="M283.592 113.72H268.906C268.732 113.72 268.565 113.791 268.442 113.917C268.319 114.044 268.25 114.215 268.25 114.394C268.25 114.573 268.319 114.745 268.442 114.871C268.565 114.998 268.732 115.069 268.906 115.069H283.592C283.766 115.069 283.933 114.998 284.056 114.871C284.179 114.745 284.248 114.573 284.248 114.394C284.248 114.215 284.179 114.044 284.056 113.917C283.933 113.791 283.766 113.72 283.592 113.72Z" fill="white"/>
<path d="M283.592 117.929H274.815C274.641 117.93 274.476 118.002 274.353 118.128C274.231 118.255 274.163 118.425 274.163 118.604C274.163 118.782 274.231 118.952 274.353 119.079C274.476 119.205 274.641 119.277 274.815 119.278H283.592C283.765 119.277 283.931 119.205 284.053 119.079C284.175 118.952 284.244 118.782 284.244 118.604C284.244 118.425 284.175 118.255 284.053 118.128C283.931 118.002 283.765 117.93 283.592 117.929Z" fill="white"/>
<path d="M283.592 122.138H268.906C268.733 122.139 268.567 122.211 268.445 122.337C268.323 122.464 268.254 122.634 268.254 122.812C268.254 122.991 268.323 123.161 268.445 123.288C268.567 123.414 268.733 123.486 268.906 123.487H283.592C283.765 123.486 283.931 123.414 284.053 123.288C284.175 123.161 284.243 122.991 284.243 122.812C284.243 122.634 284.175 122.464 284.053 122.337C283.931 122.211 283.765 122.139 283.592 122.138Z" fill="white"/>
<path d="M283.592 126.347H271.532C271.358 126.347 271.191 126.418 271.068 126.545C270.945 126.671 270.876 126.843 270.876 127.022C270.876 127.201 270.945 127.372 271.068 127.499C271.191 127.625 271.358 127.696 271.532 127.696H283.592C283.766 127.696 283.933 127.625 284.056 127.499C284.179 127.372 284.248 127.201 284.248 127.022C284.248 126.843 284.179 126.671 284.056 126.545C283.933 126.418 283.766 126.347 283.592 126.347Z" fill="white"/>
<path d="M283.592 130.556H271.532C271.358 130.556 271.191 130.627 271.068 130.754C270.945 130.88 270.876 131.052 270.876 131.231C270.876 131.41 270.945 131.581 271.068 131.708C271.191 131.834 271.358 131.905 271.532 131.905H283.592C283.766 131.905 283.933 131.834 284.056 131.708C284.179 131.581 284.248 131.41 284.248 131.231C284.248 131.052 284.179 130.88 284.056 130.754C283.933 130.627 283.766 130.556 283.592 130.556Z" fill="white"/>
<path d="M283.592 134.765H270.219C270.046 134.766 269.88 134.838 269.758 134.964C269.636 135.091 269.567 135.262 269.567 135.44C269.567 135.618 269.636 135.789 269.758 135.915C269.88 136.041 270.046 136.113 270.219 136.114H283.592C283.765 136.113 283.931 136.041 284.053 135.915C284.175 135.789 284.243 135.618 284.243 135.44C284.243 135.262 284.175 135.091 284.053 134.964C283.931 134.838 283.765 134.766 283.592 134.765Z" fill="white"/>
<path opacity="0.5" d="M283.592 138.974H274.815C274.728 138.974 274.643 138.992 274.563 139.026C274.484 139.06 274.411 139.109 274.35 139.172C274.289 139.235 274.241 139.309 274.208 139.391C274.175 139.473 274.158 139.56 274.158 139.649C274.158 139.737 274.175 139.825 274.208 139.907C274.241 139.989 274.289 140.063 274.35 140.126C274.411 140.188 274.484 140.238 274.563 140.272C274.643 140.306 274.728 140.323 274.815 140.323H283.592C283.678 140.323 283.763 140.306 283.843 140.272C283.923 140.238 283.995 140.188 284.056 140.126C284.117 140.063 284.165 139.989 284.198 139.907C284.231 139.825 284.248 139.737 284.248 139.649C284.248 139.56 284.231 139.473 284.198 139.391C284.165 139.309 284.117 139.235 284.056 139.172C283.995 139.109 283.923 139.06 283.843 139.026C283.763 138.992 283.678 138.974 283.592 138.974Z" fill="white"/>
<path opacity="0.5" d="M283.592 101.093H272.845C272.671 101.093 272.504 101.164 272.381 101.29C272.258 101.417 272.188 101.588 272.188 101.767C272.188 101.946 272.258 102.118 272.381 102.244C272.504 102.371 272.671 102.442 272.845 102.442H283.592C283.766 102.442 283.933 102.371 284.056 102.244C284.179 102.118 284.248 101.946 284.248 101.767C284.248 101.588 284.179 101.417 284.056 101.29C283.933 101.164 283.766 101.093 283.592 101.093Z" fill="white"/>
<path d="M283.592 96.8833H268.906C268.733 96.8846 268.567 96.9562 268.445 97.0826C268.323 97.209 268.254 97.3798 268.254 97.5578C268.254 97.7359 268.323 97.9067 268.445 98.0331C268.567 98.1595 268.733 98.2311 268.906 98.2324H283.592C283.765 98.2311 283.931 98.1595 284.053 98.0331C284.175 97.9067 284.243 97.7359 284.243 97.5578C284.243 97.3798 284.175 97.209 284.053 97.0826C283.931 96.9562 283.765 96.8846 283.592 96.8833Z" fill="white"/>
<path d="M283.592 143.177H268.906C268.733 143.178 268.567 143.25 268.445 143.376C268.323 143.502 268.254 143.673 268.254 143.851C268.254 144.029 268.323 144.2 268.445 144.327C268.567 144.453 268.733 144.525 268.906 144.526H283.592C283.765 144.525 283.931 144.453 284.053 144.327C284.175 144.2 284.243 144.029 284.243 143.851C284.243 143.673 284.175 143.502 284.053 143.376C283.931 143.25 283.765 143.178 283.592 143.177Z" fill="white"/>
<path opacity="0.5" d="M291.469 105.133H288.601V106.819H291.469V105.133Z" fill="white"/>
<path opacity="0.5" d="M291.469 109.342H288.601V111.028H291.469V109.342Z" fill="white"/>
<path opacity="0.5" d="M291.469 113.551H288.601V115.238H291.469V113.551Z" fill="white"/>
<path opacity="0.5" d="M291.469 117.76H288.601V119.447H291.469V117.76Z" fill="white"/>
<path opacity="0.5" d="M291.469 121.969H288.601V123.656H291.469V121.969Z" fill="white"/>
<path opacity="0.5" d="M291.469 126.178H288.601V127.865H291.469V126.178Z" fill="white"/>
<path opacity="0.5" d="M291.469 130.387H288.601V132.074H291.469V130.387Z" fill="white"/>
<path opacity="0.5" d="M291.469 134.597H288.601V136.283H291.469V134.597Z" fill="white"/>
<path opacity="0.5" d="M291.469 138.806H288.601V140.492H291.469V138.806Z" fill="white"/>
<path opacity="0.5" d="M291.469 100.924H288.601V102.61H291.469V100.924Z" fill="white"/>
<path opacity="0.5" d="M291.469 96.7148H288.601V98.4012H291.469V96.7148Z" fill="white"/>
<path opacity="0.5" d="M291.469 143.015H288.601V144.701H291.469V143.015Z" fill="white"/>
<path d="M306.326 105.976C306.326 106.065 306.343 106.152 306.376 106.234C306.409 106.316 306.457 106.39 306.518 106.453C306.579 106.516 306.651 106.565 306.731 106.599C306.811 106.633 306.896 106.651 306.982 106.651H354.492C354.665 106.649 354.831 106.578 354.953 106.451C355.075 106.325 355.144 106.154 355.144 105.976C355.144 105.798 355.075 105.627 354.953 105.501C354.831 105.374 354.665 105.303 354.492 105.302H306.982C306.896 105.302 306.811 105.319 306.731 105.353C306.651 105.387 306.579 105.436 306.518 105.499C306.457 105.562 306.409 105.636 306.376 105.718C306.343 105.8 306.326 105.887 306.326 105.976Z" fill="white"/>
<path d="M354.492 109.511H328.482C328.309 109.512 328.143 109.584 328.021 109.71C327.899 109.836 327.83 110.007 327.83 110.185C327.83 110.363 327.899 110.534 328.021 110.661C328.143 110.787 328.309 110.859 328.482 110.86H354.499C354.672 110.859 354.838 110.787 354.96 110.661C355.082 110.534 355.151 110.363 355.151 110.185C355.151 110.007 355.082 109.836 354.96 109.71C354.838 109.584 354.672 109.512 354.499 109.511H354.492Z" fill="white"/>
<path opacity="0.5" d="M322.298 109.511H314.204C314.03 109.512 313.865 109.584 313.742 109.71C313.62 109.836 313.552 110.007 313.552 110.185C313.552 110.363 313.62 110.534 313.742 110.661C313.865 110.787 314.03 110.859 314.204 110.86H322.298C322.385 110.86 322.471 110.844 322.551 110.81C322.631 110.776 322.704 110.727 322.765 110.664C322.827 110.601 322.876 110.527 322.909 110.445C322.942 110.362 322.959 110.274 322.959 110.185C322.959 110.096 322.942 110.008 322.909 109.926C322.876 109.844 322.827 109.769 322.765 109.707C322.704 109.644 322.631 109.594 322.551 109.561C322.471 109.527 322.385 109.51 322.298 109.511Z" fill="white"/>
<path d="M338.737 113.72H302.63C302.456 113.72 302.289 113.791 302.165 113.917C302.042 114.044 301.973 114.215 301.973 114.394C301.973 114.573 302.042 114.745 302.165 114.871C302.289 114.998 302.456 115.069 302.63 115.069H338.737C338.911 115.069 339.078 114.998 339.201 114.871C339.324 114.745 339.393 114.573 339.393 114.394C339.393 114.215 339.324 114.044 339.201 113.917C339.078 113.791 338.911 113.72 338.737 113.72Z" fill="white"/>
<path opacity="0.5" d="M295.166 115.069H297.726C297.9 115.069 298.067 114.998 298.19 114.871C298.313 114.745 298.382 114.573 298.382 114.394C298.382 114.215 298.313 114.044 298.19 113.917C298.067 113.791 297.9 113.72 297.726 113.72H295.166C294.991 113.72 294.824 113.791 294.701 113.917C294.578 114.044 294.509 114.215 294.509 114.394C294.509 114.573 294.578 114.745 294.701 114.871C294.824 114.998 294.991 115.069 295.166 115.069Z" fill="white"/>
<path d="M343.332 118.604C343.332 118.425 343.263 118.253 343.14 118.127C343.017 118 342.85 117.929 342.675 117.929H309.195C309.108 117.928 309.022 117.945 308.942 117.979C308.862 118.013 308.789 118.062 308.727 118.125C308.666 118.188 308.617 118.262 308.584 118.344C308.55 118.426 308.533 118.515 308.533 118.604C308.533 118.693 308.55 118.781 308.584 118.863C308.617 118.945 308.666 119.02 308.727 119.082C308.789 119.145 308.862 119.195 308.942 119.228C309.022 119.262 309.108 119.279 309.195 119.278H342.675C342.762 119.278 342.847 119.261 342.927 119.227C343.006 119.193 343.079 119.143 343.14 119.08C343.201 119.018 343.249 118.943 343.282 118.862C343.315 118.78 343.332 118.692 343.332 118.604Z" fill="white"/>
<path d="M295.166 119.278H304.612C304.786 119.277 304.951 119.205 305.073 119.079C305.196 118.952 305.264 118.781 305.264 118.603C305.264 118.425 305.196 118.254 305.073 118.128C304.951 118.002 304.786 117.93 304.612 117.929H295.166C295.079 117.928 294.993 117.945 294.913 117.979C294.833 118.012 294.76 118.062 294.698 118.125C294.637 118.187 294.588 118.262 294.555 118.344C294.521 118.426 294.504 118.514 294.504 118.603C294.504 118.692 294.521 118.78 294.555 118.863C294.588 118.945 294.637 119.019 294.698 119.082C294.76 119.145 294.833 119.194 294.913 119.228C294.993 119.261 295.079 119.278 295.166 119.278Z" fill="white"/>
<path d="M295.166 123.487H330.859C331.032 123.486 331.198 123.414 331.32 123.288C331.442 123.161 331.51 122.991 331.51 122.813C331.51 122.634 331.442 122.464 331.32 122.337C331.198 122.211 331.032 122.139 330.859 122.138H295.166C295.079 122.137 294.993 122.154 294.913 122.188C294.833 122.221 294.76 122.271 294.698 122.334C294.637 122.396 294.588 122.471 294.555 122.553C294.521 122.635 294.504 122.724 294.504 122.813C294.504 122.902 294.521 122.99 294.555 123.072C294.588 123.154 294.637 123.229 294.698 123.291C294.76 123.354 294.833 123.404 294.913 123.437C294.993 123.471 295.079 123.488 295.166 123.487Z" fill="white"/>
<path d="M318.254 126.347C318.08 126.347 317.913 126.418 317.79 126.545C317.667 126.671 317.598 126.843 317.598 127.022C317.598 127.201 317.667 127.372 317.79 127.499C317.913 127.625 318.08 127.696 318.254 127.696H336.767C336.941 127.696 337.108 127.625 337.231 127.499C337.354 127.372 337.424 127.201 337.424 127.022C337.424 126.843 337.354 126.671 337.231 126.545C337.108 126.418 336.941 126.347 336.767 126.347H318.254Z" fill="white"/>
<path d="M295.166 127.696H311.19C311.364 127.696 311.531 127.625 311.655 127.499C311.778 127.372 311.847 127.201 311.847 127.022C311.847 126.843 311.778 126.671 311.655 126.545C311.531 126.418 311.364 126.347 311.19 126.347H295.166C294.991 126.347 294.824 126.418 294.701 126.545C294.578 126.671 294.509 126.843 294.509 127.022C294.509 127.201 294.578 127.372 294.701 127.499C294.824 127.625 294.991 127.696 295.166 127.696Z" fill="white"/>
<path d="M354.492 130.556H310.921C310.747 130.556 310.58 130.627 310.457 130.754C310.334 130.88 310.265 131.052 310.265 131.231C310.265 131.41 310.334 131.581 310.457 131.708C310.58 131.834 310.747 131.905 310.921 131.905H354.492C354.666 131.905 354.833 131.834 354.956 131.708C355.079 131.581 355.149 131.41 355.149 131.231C355.149 131.052 355.079 130.88 354.956 130.754C354.833 130.627 354.666 130.556 354.492 130.556Z" fill="white"/>
<path d="M354.492 134.765H316.83C316.743 134.765 316.657 134.781 316.577 134.815C316.497 134.849 316.424 134.898 316.362 134.961C316.301 135.024 316.252 135.098 316.219 135.18C316.185 135.263 316.168 135.351 316.168 135.44C316.168 135.529 316.185 135.617 316.219 135.699C316.252 135.781 316.301 135.856 316.362 135.918C316.424 135.981 316.497 136.031 316.577 136.064C316.657 136.098 316.743 136.115 316.83 136.114H354.492C354.665 136.113 354.831 136.041 354.953 135.915C355.075 135.789 355.144 135.618 355.144 135.44C355.144 135.262 355.075 135.091 354.953 134.964C354.831 134.838 354.665 134.766 354.492 134.765Z" fill="white"/>
<path opacity="0.5" d="M354.492 138.974H346.746C346.572 138.974 346.405 139.045 346.281 139.172C346.158 139.298 346.089 139.47 346.089 139.649C346.089 139.828 346.158 139.999 346.281 140.126C346.405 140.252 346.572 140.323 346.746 140.323H354.492C354.578 140.323 354.664 140.306 354.743 140.272C354.823 140.238 354.895 140.188 354.956 140.126C355.017 140.063 355.066 139.989 355.099 139.907C355.132 139.825 355.149 139.737 355.149 139.649C355.149 139.56 355.132 139.473 355.099 139.391C355.066 139.309 355.017 139.235 354.956 139.172C354.895 139.109 354.823 139.06 354.743 139.026C354.664 138.992 354.578 138.974 354.492 138.974Z" fill="white"/>
<path d="M341.33 138.974H312.891C312.804 138.974 312.719 138.992 312.639 139.026C312.56 139.06 312.487 139.109 312.426 139.172C312.365 139.235 312.317 139.309 312.284 139.391C312.251 139.473 312.234 139.56 312.234 139.649C312.234 139.737 312.251 139.825 312.284 139.907C312.317 139.989 312.365 140.063 312.426 140.126C312.487 140.188 312.56 140.238 312.639 140.272C312.719 140.306 312.804 140.323 312.891 140.323H341.33C341.416 140.323 341.501 140.306 341.581 140.272C341.66 140.238 341.733 140.188 341.794 140.126C341.855 140.063 341.903 139.989 341.936 139.907C341.969 139.825 341.986 139.737 341.986 139.649C341.986 139.56 341.969 139.473 341.936 139.391C341.903 139.309 341.855 139.235 341.794 139.172C341.733 139.109 341.66 139.06 341.581 139.026C341.501 138.992 341.416 138.974 341.33 138.974Z" fill="white"/>
<path d="M295.166 102.442H325.607C325.781 102.442 325.948 102.371 326.071 102.244C326.194 102.118 326.263 101.946 326.263 101.767C326.263 101.588 326.194 101.417 326.071 101.29C325.948 101.164 325.781 101.093 325.607 101.093H295.166C294.991 101.093 294.824 101.164 294.701 101.29C294.578 101.417 294.509 101.588 294.509 101.767C294.509 101.946 294.578 102.118 294.701 102.244C294.824 102.371 294.991 102.442 295.166 102.442Z" fill="white"/>
<path d="M295.166 98.2324H342.675C342.849 98.2311 343.014 98.1595 343.137 98.0331C343.259 97.9067 343.327 97.7359 343.327 97.5579C343.327 97.3798 343.259 97.209 343.137 97.0826C343.014 96.9563 342.849 96.8846 342.675 96.8833H295.166C295.079 96.8827 294.993 96.8996 294.913 96.9333C294.833 96.9669 294.76 97.0164 294.698 97.0791C294.637 97.1418 294.588 97.2164 294.555 97.2986C294.521 97.3807 294.504 97.4689 294.504 97.5579C294.504 97.6469 294.521 97.735 294.555 97.8171C294.588 97.8993 294.637 97.9739 294.698 98.0366C294.76 98.0993 294.833 98.1489 294.913 98.1825C294.993 98.2161 295.079 98.2331 295.166 98.2324Z" fill="white"/>
<path d="M339.393 143.177H319.226C319.052 143.178 318.887 143.25 318.765 143.376C318.642 143.502 318.574 143.673 318.574 143.851C318.574 144.029 318.642 144.2 318.765 144.327C318.887 144.453 319.052 144.525 319.226 144.526H339.393C339.566 144.525 339.732 144.453 339.854 144.327C339.976 144.2 340.045 144.029 340.045 143.851C340.045 143.673 339.976 143.502 339.854 143.376C339.732 143.25 339.566 143.178 339.393 143.177Z" fill="white"/>
<path opacity="0.5" d="M313.508 143.177H295.166C295.079 143.176 294.993 143.193 294.913 143.227C294.833 143.26 294.76 143.31 294.698 143.373C294.637 143.435 294.588 143.51 294.555 143.592C294.521 143.674 294.504 143.762 294.504 143.851C294.504 143.94 294.521 144.028 294.555 144.111C294.588 144.193 294.637 144.267 294.698 144.33C294.76 144.393 294.833 144.442 294.913 144.476C294.993 144.51 295.079 144.527 295.166 144.526H313.508C313.594 144.527 313.68 144.51 313.76 144.476C313.841 144.442 313.914 144.393 313.975 144.33C314.036 144.267 314.085 144.193 314.119 144.111C314.152 144.028 314.169 143.94 314.169 143.851C314.169 143.762 314.152 143.674 314.119 143.592C314.085 143.51 314.036 143.435 313.975 143.373C313.914 143.31 313.841 143.26 313.76 143.227C313.68 143.193 313.594 143.176 313.508 143.177Z" fill="white"/>
<path opacity="0.5" d="M332.362 102.442C332.536 102.442 332.703 102.371 332.826 102.244C332.95 102.118 333.019 101.946 333.019 101.767C333.019 101.588 332.95 101.417 332.826 101.29C332.703 101.164 332.536 101.093 332.362 101.093H329.999C329.825 101.093 329.658 101.164 329.534 101.29C329.411 101.417 329.342 101.588 329.342 101.767C329.342 101.946 329.411 102.118 329.534 102.244C329.658 102.371 329.825 102.442 329.999 102.442H332.362Z" fill="white"/>
<path opacity="0.5" d="M303.588 105.976C303.588 105.797 303.519 105.626 303.396 105.499C303.273 105.373 303.106 105.302 302.932 105.302H299.761C299.588 105.303 299.422 105.374 299.3 105.501C299.178 105.627 299.109 105.798 299.109 105.976C299.109 106.154 299.178 106.325 299.3 106.451C299.422 106.578 299.588 106.649 299.761 106.651H302.932C303.106 106.651 303.273 106.579 303.396 106.453C303.519 106.326 303.588 106.155 303.588 105.976Z" fill="white"/>
<path opacity="0.5" d="M339.787 122.813C339.787 122.724 339.77 122.636 339.737 122.554C339.704 122.473 339.656 122.398 339.595 122.336C339.534 122.273 339.461 122.223 339.382 122.189C339.302 122.155 339.217 122.138 339.13 122.138H335.664C335.578 122.137 335.492 122.154 335.411 122.188C335.331 122.221 335.258 122.271 335.197 122.334C335.135 122.396 335.087 122.471 335.053 122.553C335.02 122.635 335.003 122.724 335.003 122.813C335.003 122.902 335.02 122.99 335.053 123.072C335.087 123.154 335.135 123.229 335.197 123.291C335.258 123.354 335.331 123.404 335.411 123.437C335.492 123.471 335.578 123.488 335.664 123.487H339.13C339.305 123.487 339.471 123.416 339.595 123.289C339.718 123.163 339.787 122.991 339.787 122.813Z" fill="white"/>
<path opacity="0.5" d="M351.151 119.278C351.237 119.278 351.323 119.261 351.403 119.228C351.484 119.194 351.556 119.145 351.618 119.082C351.679 119.019 351.728 118.945 351.761 118.863C351.795 118.78 351.812 118.692 351.812 118.603C351.812 118.514 351.795 118.426 351.761 118.344C351.728 118.262 351.679 118.187 351.618 118.125C351.556 118.062 351.484 118.012 351.403 117.979C351.323 117.945 351.237 117.928 351.151 117.929H348.334C348.248 117.928 348.162 117.945 348.082 117.979C348.001 118.012 347.928 118.062 347.867 118.125C347.806 118.187 347.757 118.262 347.723 118.344C347.69 118.426 347.673 118.514 347.673 118.603C347.673 118.692 347.69 118.78 347.723 118.863C347.757 118.945 347.806 119.019 347.867 119.082C347.928 119.145 348.001 119.194 348.082 119.228C348.162 119.261 348.248 119.278 348.334 119.278H351.151Z" fill="white"/>
<path opacity="0.5" d="M305.643 130.556C305.469 130.556 305.302 130.627 305.179 130.754C305.056 130.88 304.987 131.052 304.987 131.231C304.987 131.41 305.056 131.581 305.179 131.708C305.302 131.834 305.469 131.905 305.643 131.905H308.472C308.647 131.905 308.814 131.834 308.937 131.708C309.06 131.581 309.129 131.41 309.129 131.231C309.129 131.052 309.06 130.88 308.937 130.754C308.814 130.627 308.647 130.556 308.472 130.556H305.643Z" fill="white"/>
<path d="M93.7094 23.0859H143.847C144.524 23.0859 145.195 23.2229 145.82 23.4891C146.445 23.7553 147.014 24.1454 147.492 24.6373C147.971 25.1291 148.351 25.713 148.61 26.3556C148.869 26.9982 149.002 27.6869 149.002 28.3825V56.2514C149.002 57.6562 148.459 59.0033 147.492 59.9966C146.526 60.9899 145.214 61.5479 143.847 61.5479H93.7094C92.3423 61.5479 91.0311 60.9899 90.0644 59.9966C89.0977 59.0033 88.5546 57.6562 88.5546 56.2514V28.3825C88.5546 26.9777 89.0977 25.6306 90.0644 24.6373C91.0311 23.644 92.3423 23.0859 93.7094 23.0859Z" fill="#C778DD"/>
<path d="M97.439 29.1458V35.6106H96.7871V29.7377H95.271V29.1458L97.439 29.1458Z" fill="white"/>
<path d="M98.9248 32.4171C98.9248 30.3608 99.9861 29.1458 101.442 29.1458C102.897 29.1458 103.943 30.3607 103.943 32.4171C103.943 34.4735 102.897 35.7041 101.442 35.7041C99.9861 35.7041 98.9248 34.4265 98.9248 32.4171ZM103.291 32.4171C103.291 30.7035 102.533 29.7533 101.442 29.7533C100.35 29.7533 99.5919 30.7035 99.5919 32.4171C99.5919 34.1307 100.335 35.0965 101.442 35.0965C102.548 35.0965 103.291 34.0995 103.291 32.4171Z" fill="white"/>
<path d="M104.868 32.4171C104.868 30.3608 105.914 29.1458 107.37 29.1458C108.825 29.1458 109.886 30.3607 109.886 32.4171C109.886 34.4735 108.825 35.7041 107.37 35.7041C105.914 35.7041 104.868 34.4265 104.868 32.4171ZM109.219 32.4171C109.219 30.7035 108.476 29.7533 107.37 29.7533C106.263 29.7533 105.52 30.7035 105.52 32.4171C105.52 34.1307 106.278 35.0965 107.37 35.0965C108.461 35.0965 109.219 34.0995 109.219 32.4171Z" fill="white"/>
<path d="M112.54 29.1458V35.6106H111.888V29.7377H110.371V29.1458L112.54 29.1458Z" fill="white"/>
<path d="M115.769 29.1458V35.6106H115.117V29.7377H113.601V29.1458L115.769 29.1458Z" fill="white"/>
<path d="M117.27 32.4171C117.27 30.3608 118.316 29.1458 119.771 29.1458C121.227 29.1458 122.288 30.3607 122.288 32.4171C122.288 34.4735 121.227 35.7041 119.771 35.7041C118.316 35.7041 117.27 34.4265 117.27 32.4171ZM121.621 32.4171C121.621 30.7035 120.863 29.7533 119.771 29.7533C118.68 29.7533 117.922 30.7035 117.922 32.4171C117.922 34.1307 118.68 35.0965 119.771 35.0965C120.863 35.0965 121.621 34.0995 121.621 32.4171Z" fill="white"/>
<path d="M124.941 29.1458V35.6106H124.289V29.7377H122.773V29.1458L124.941 29.1458Z" fill="white"/>
<path d="M126.427 32.4171C126.427 30.3608 127.488 29.1458 128.929 29.1458C130.369 29.1458 131.445 30.3607 131.445 32.4171C131.445 34.4735 130.384 35.7041 128.929 35.7041C127.473 35.7041 126.427 34.4265 126.427 32.4171ZM130.778 32.4171C130.778 30.7035 130.035 29.7533 128.929 29.7533C127.822 29.7533 127.094 30.7035 127.094 32.4171C127.094 34.1307 127.837 35.0965 128.929 35.0965C130.02 35.0965 130.778 34.0995 130.778 32.4171Z" fill="white"/>
<path d="M132.37 32.4171C132.37 30.3608 133.416 29.1458 134.872 29.1458C136.327 29.1458 137.389 30.3607 137.389 32.4171C137.389 34.4735 136.327 35.7041 134.872 35.7041C133.416 35.7041 132.37 34.4265 132.37 32.4171ZM136.722 32.4171C136.722 30.7035 135.963 29.7533 134.872 29.7533C133.78 29.7533 133.022 30.7035 133.022 32.4171C133.022 34.1307 133.78 35.0965 134.872 35.0965C135.963 35.0965 136.722 34.0995 136.722 32.4171Z" fill="white"/>
<path d="M140.042 29.1458V35.6106H139.375V29.7377H137.859V29.1458L140.042 29.1458Z" fill="white"/>
<path d="M143.271 29.1458V35.6106H142.634V29.7377H141.118V29.1458L143.271 29.1458Z" fill="white"/>
<path d="M95.6955 41.7638C95.6955 39.7075 96.7416 38.4924 98.1971 38.4924C99.6525 38.4924 100.714 39.7074 100.714 41.7638C100.714 43.8202 99.6526 45.0507 98.1971 45.0507C96.7416 45.0507 95.6955 43.7733 95.6955 41.7638ZM100.047 41.7638C100.047 40.0502 99.2886 39.1 98.1971 39.1C97.1056 39.1 96.3474 40.0502 96.3474 41.7638C96.3474 43.4774 97.1056 44.4432 98.1971 44.4432C99.2886 44.4432 100.047 43.4462 100.047 41.7638Z" fill="white"/>
<path d="M101.639 41.7638C101.639 39.7075 102.685 38.4924 104.14 38.4924C105.596 38.4924 106.642 39.7074 106.642 41.7638C106.642 43.8202 105.596 45.0507 104.14 45.0507C102.685 45.0507 101.639 43.7733 101.639 41.7638ZM105.99 41.7638C105.99 40.0502 105.232 39.1 104.14 39.1C103.049 39.1 102.291 40.0502 102.291 41.7638C102.291 43.4774 103.049 44.4432 104.14 44.4432C105.232 44.4432 106.02 43.4462 106.02 41.7638H105.99Z" fill="white"/>
<path d="M109.295 38.4925V44.9574H108.643V39.0844H107.127V38.4924L109.295 38.4925Z" fill="white"/>
<path d="M112.54 38.4925V44.9574H111.888V39.0844H110.371V38.4924L112.54 38.4925Z" fill="white"/>
<path d="M114.025 41.7638C114.025 39.7075 115.087 38.4924 116.542 38.4924C117.998 38.4924 119.044 39.7074 119.044 41.7638C119.044 43.8202 117.998 45.0507 116.542 45.0507C115.087 45.0507 114.025 43.7733 114.025 41.7638ZM118.392 41.7638C118.392 40.0502 117.634 39.1 116.542 39.1C115.451 39.1 114.692 40.0502 114.692 41.7638C114.692 43.4774 115.435 44.4432 116.542 44.4432C117.649 44.4432 118.392 43.4462 118.392 41.7638Z" fill="white"/>
<path d="M121.697 38.4925V44.9574H121.045V39.0844H119.529V38.4924L121.697 38.4925Z" fill="white"/>
<path d="M123.198 41.7638C123.198 39.7075 124.244 38.4924 125.699 38.4924C127.155 38.4924 128.216 39.7074 128.216 41.7638C128.216 43.8202 127.155 45.0507 125.699 45.0507C124.244 45.0507 123.198 43.7733 123.198 41.7638ZM127.549 41.7638C127.549 40.0502 126.791 39.1 125.699 39.1C124.608 39.1 123.85 40.0502 123.85 41.7638C123.85 43.4774 124.608 44.4432 125.699 44.4432C126.791 44.4432 127.549 43.4462 127.549 41.7638Z" fill="white"/>
<path d="M129.126 41.7638C129.126 39.7075 130.187 38.4924 131.643 38.4924C133.098 38.4924 134.144 39.7074 134.144 41.7638C134.144 43.8202 133.083 45.0507 131.643 45.0507C130.202 45.0507 129.126 43.7733 129.126 41.7638ZM133.492 41.7638C133.492 40.0502 132.734 39.1 131.643 39.1C130.551 39.1 129.793 40.0502 129.793 41.7638C129.793 43.4774 130.536 44.4432 131.643 44.4432C132.749 44.4432 133.492 43.4462 133.492 41.7638Z" fill="white"/>
<path d="M136.797 38.4925V44.9574H136.145V39.0844H134.629V38.4924L136.797 38.4925Z" fill="white"/>
<path d="M140.042 38.4925V44.9574H139.375V39.0844H137.859V38.4924L140.042 38.4925Z" fill="white"/>
<path d="M143.271 38.4925V44.9574H142.634V39.0844H141.118V38.4924L143.271 38.4925Z" fill="white"/>
<path d="M97.439 47.8394V54.3042H96.7871V48.4313H95.271V47.8394L97.439 47.8394Z" fill="white"/>
<path d="M100.668 47.8394V54.3042H100.032V48.4313H98.5155V47.8394L100.668 47.8394Z" fill="white"/>
<path d="M102.169 51.1107C102.169 49.0544 103.215 47.8394 104.671 47.8394C106.126 47.8394 107.188 49.0543 107.188 51.1107C107.188 53.1671 106.126 54.3977 104.671 54.3977C103.215 54.3977 102.169 53.1203 102.169 51.1107ZM106.521 51.1107C106.521 49.3972 105.778 48.4469 104.671 48.4469C103.564 48.4469 102.821 49.3972 102.821 51.1107C102.821 52.8243 103.579 53.7901 104.671 53.7901C105.762 53.7901 106.521 52.7931 106.521 51.1107Z" fill="white"/>
<path d="M108.112 51.1107C108.112 49.0544 109.159 47.8394 110.614 47.8394C112.069 47.8394 113.131 49.0543 113.131 51.1107C113.131 53.1671 112.07 54.3977 110.614 54.3977C109.159 54.3977 108.112 53.1203 108.112 51.1107ZM112.464 51.1107C112.464 49.3972 111.706 48.4469 110.614 48.4469C109.523 48.4469 108.764 49.3972 108.764 51.1107C108.764 52.8243 109.523 53.7901 110.614 53.7901C111.706 53.7901 112.464 52.7931 112.464 51.1107Z" fill="white"/>
<path d="M115.769 47.8394V54.3042H115.117V48.4313H113.601V47.8394L115.769 47.8394Z" fill="white"/>
<path d="M119.013 47.8394V54.3042H118.361V48.4313H116.845V47.8394L119.013 47.8394Z" fill="white"/>
<path d="M120.514 51.1107C120.514 49.0544 121.56 47.8394 123.016 47.8394C124.471 47.8394 125.533 49.0543 125.533 51.1107C125.533 53.1671 124.471 54.3977 123.016 54.3977C121.56 54.3977 120.514 53.1203 120.514 51.1107ZM124.866 51.1107C124.866 49.3972 124.107 48.4469 123.016 48.4469C121.924 48.4469 121.181 49.3504 121.181 51.1107C121.181 52.871 121.94 53.7901 123.031 53.7901C124.123 53.7901 124.866 52.7931 124.866 51.1107Z" fill="white"/>
<path d="M126.442 51.1107C126.442 49.0544 127.504 47.8394 128.959 47.8394C130.415 47.8394 131.461 49.0543 131.461 51.1107C131.461 53.1671 130.415 54.3977 128.959 54.3977C127.504 54.3977 126.442 53.1203 126.442 51.1107ZM130.809 51.1107C130.809 49.3972 130.051 48.4469 128.959 48.4469C127.868 48.4469 127.109 49.3972 127.109 51.1107C127.109 52.8243 127.852 53.7901 128.959 53.7901C130.066 53.7901 130.809 52.7931 130.809 51.1107Z" fill="white"/>
<path d="M134.114 47.8394V54.3042H133.462V48.4313H131.946V47.8394L134.114 47.8394Z" fill="white"/>
<path d="M135.615 51.1107C135.615 49.0544 136.661 47.8394 138.116 47.8394C139.572 47.8394 140.633 49.0543 140.633 51.1107C140.633 53.1671 139.572 54.3977 138.116 54.3977C136.661 54.3977 135.615 53.1203 135.615 51.1107ZM139.966 51.1107C139.966 49.3972 139.208 48.4469 138.116 48.4469C137.025 48.4469 136.343 49.3504 136.343 51.1107C136.343 52.871 137.101 53.7901 138.192 53.7901C139.284 53.7901 139.966 52.7931 139.966 51.1107Z" fill="white"/>
<path d="M143.271 47.8394V54.3042H142.634V48.4313H141.118V47.8394L143.271 47.8394Z" fill="white"/>
<path d="M306.363 11.5798H248.044C247.354 11.5798 246.795 12.1543 246.795 12.8629V61.6975C246.795 62.4061 247.354 62.9805 248.044 62.9805H306.363C307.053 62.9805 307.612 62.4061 307.612 61.6975V12.8629C307.612 12.1543 307.053 11.5798 306.363 11.5798Z" fill="#C778DD"/>
<path d="M307.612 12.8627V61.6974C307.612 62.0376 307.481 62.3639 307.246 62.6045C307.012 62.8451 306.695 62.9802 306.363 62.9802H248.044C247.88 62.9803 247.718 62.9471 247.566 62.8826C247.415 62.8182 247.277 62.7237 247.161 62.6046C247.045 62.4854 246.953 62.344 246.89 62.1883C246.828 62.0327 246.795 61.8658 246.795 61.6974V12.8627C246.797 12.5229 246.929 12.1974 247.163 11.9572C247.397 11.7169 247.713 11.5813 248.044 11.5798H306.391C306.717 11.5886 307.027 11.7274 307.255 11.9669C307.483 12.2064 307.611 12.5277 307.612 12.8627Z" fill="white"/>
<path d="M306.314 16.8074H248.088V61.5406H306.314V16.8074Z" fill="#C778DD"/>
<path opacity="0.5" d="M252.826 22.3821C252.898 22.4347 252.984 22.4622 253.072 22.4607C253.135 22.4616 253.198 22.4468 253.255 22.4176C253.312 22.3884 253.361 22.3456 253.399 22.2927C253.431 22.2494 253.454 22.1999 253.468 22.1473C253.481 22.0946 253.485 22.0397 253.477 21.9858C253.47 21.9318 253.453 21.8799 253.426 21.8328C253.399 21.7858 253.364 21.7447 253.321 21.7118L253.312 21.7044L252.112 20.7912L253.317 19.8779C253.361 19.8453 253.398 19.8041 253.426 19.7568C253.454 19.7095 253.473 19.6569 253.481 19.6021C253.489 19.5473 253.487 19.4913 253.474 19.4374C253.461 19.3836 253.438 19.3328 253.406 19.2882C253.374 19.2435 253.334 19.2057 253.288 19.1771C253.242 19.1485 253.19 19.1295 253.137 19.1213C253.084 19.1131 253.029 19.1158 252.977 19.1293C252.924 19.1428 252.875 19.1668 252.832 19.1999L251.196 20.455C251.145 20.4947 251.104 20.546 251.075 20.6048C251.047 20.6636 251.032 20.7283 251.032 20.794C251.032 20.8596 251.047 20.9243 251.075 20.9832C251.104 21.042 251.145 21.0932 251.196 21.1329L252.826 22.3821Z" fill="white"/>
<path opacity="0.5" d="M258.367 20.7854L257.161 21.7043C257.079 21.7679 257.024 21.8619 257.008 21.9664C256.992 22.0708 257.015 22.1777 257.074 22.2646C257.112 22.3178 257.161 22.3612 257.218 22.3914C257.275 22.4215 257.337 22.4376 257.401 22.4382C257.49 22.4378 257.576 22.4084 257.647 22.3542L259.283 21.0992C259.335 21.0607 259.377 21.0102 259.406 20.9518C259.435 20.8933 259.45 20.8286 259.45 20.763C259.45 20.6973 259.435 20.6326 259.406 20.5742C259.377 20.5157 259.335 20.4652 259.283 20.4268L257.647 19.1774C257.607 19.1407 257.56 19.1125 257.509 19.0944C257.459 19.0762 257.405 19.0686 257.351 19.0718C257.298 19.075 257.245 19.089 257.197 19.113C257.148 19.137 257.105 19.1706 257.069 19.2118C257.034 19.2531 257.006 19.3011 256.989 19.3532C256.971 19.4053 256.964 19.4605 256.967 19.5156C256.97 19.5707 256.983 19.6246 257.007 19.6743C257.03 19.724 257.063 19.7684 257.103 19.8051L257.161 19.8497L258.367 20.7854Z" fill="white"/>
<path opacity="0.5" d="M254.67 22.4214C254.715 22.4299 254.761 22.4299 254.806 22.4214C254.89 22.4223 254.973 22.3956 255.041 22.3452C255.11 22.2949 255.161 22.2235 255.188 22.1413L256.055 19.6368C256.072 19.5845 256.08 19.5292 256.077 19.4739C256.074 19.4186 256.061 19.3644 256.038 19.3145C256.014 19.2645 255.982 19.2198 255.942 19.1828C255.901 19.1458 255.855 19.1173 255.804 19.0989C255.753 19.0805 255.699 19.0726 255.645 19.0756C255.591 19.0786 255.539 19.0924 255.49 19.1164C255.441 19.1403 255.398 19.1738 255.362 19.2151C255.326 19.2563 255.298 19.3044 255.28 19.3566L254.419 21.8611C254.398 21.9121 254.388 21.9667 254.388 22.0219C254.388 22.0771 254.398 22.1317 254.419 22.1827C254.439 22.2337 254.469 22.28 254.507 22.3191C254.545 22.3581 254.59 22.389 254.64 22.4102L254.67 22.4214Z" fill="white"/>
<path opacity="0.5" d="M261.491 22.6006H263.645C263.789 22.5994 263.926 22.5398 264.028 22.4349C264.129 22.3299 264.186 22.1881 264.186 22.0403C264.186 21.8924 264.129 21.7506 264.028 21.6457C263.926 21.5407 263.789 21.4812 263.645 21.48H261.491C261.347 21.4812 261.21 21.5407 261.108 21.6457C261.007 21.7506 260.95 21.8924 260.95 22.0403C260.95 22.1881 261.007 22.3299 261.108 22.4349C261.21 22.5398 261.347 22.5994 261.491 22.6006Z" fill="white"/>
<path opacity="0.5" d="M296.417 54.2961H262.68C262.535 54.2961 262.397 54.3552 262.294 54.4602C262.192 54.5653 262.135 54.7078 262.135 54.8564C262.135 55.005 262.192 55.1475 262.294 55.2526C262.397 55.3577 262.535 55.4167 262.68 55.4167H296.417C296.562 55.4167 296.701 55.3577 296.803 55.2526C296.905 55.1475 296.963 55.005 296.963 54.8564C296.963 54.7078 296.905 54.5653 296.803 54.4602C296.701 54.3552 296.562 54.2961 296.417 54.2961Z" fill="white"/>
<path d="M303.828 54.2961H299.656C299.512 54.2961 299.373 54.3552 299.271 54.4602C299.169 54.5653 299.111 54.7078 299.111 54.8564C299.111 55.005 299.169 55.1475 299.271 55.2526C299.373 55.3577 299.512 55.4167 299.656 55.4167H303.828C303.972 55.4167 304.111 55.3577 304.213 55.2526C304.316 55.1475 304.373 55.005 304.373 54.8564C304.373 54.7078 304.316 54.5653 304.213 54.4602C304.111 54.3552 303.972 54.2961 303.828 54.2961Z" fill="white"/>
<path d="M272.833 51.8701H286.417C286.561 51.8689 286.698 51.8094 286.799 51.7044C286.901 51.5995 286.958 51.4576 286.958 51.3098C286.958 51.162 286.901 51.0201 286.799 50.9152C286.698 50.8102 286.561 50.7507 286.417 50.7495H272.833C272.689 50.7507 272.552 50.8102 272.451 50.9152C272.349 51.0201 272.292 51.162 272.292 51.3098C272.292 51.4576 272.349 51.5995 272.451 51.7044C272.552 51.8094 272.689 51.8689 272.833 51.8701Z" fill="white"/>
<path opacity="0.5" d="M296.417 51.8701C296.489 51.8707 296.561 51.8567 296.627 51.8288C296.694 51.8009 296.755 51.7597 296.806 51.7076C296.857 51.6555 296.897 51.5936 296.925 51.5253C296.953 51.457 296.967 51.3838 296.967 51.3098C296.967 51.2359 296.953 51.1626 296.925 51.0944C296.897 51.0261 296.857 50.9641 296.806 50.912C296.755 50.86 296.694 50.8188 296.627 50.7909C296.561 50.763 296.489 50.7489 296.417 50.7495H288.712C288.568 50.7507 288.431 50.8103 288.329 50.9152C288.228 51.0202 288.171 51.162 288.171 51.3098C288.171 51.4577 288.228 51.5995 288.329 51.7044C288.431 51.8094 288.568 51.8689 288.712 51.8701H296.417Z" fill="white"/>
<path opacity="0.5" d="M303.828 50.7495H299.733C299.661 50.7489 299.589 50.763 299.523 50.7909C299.456 50.8188 299.395 50.86 299.344 50.912C299.293 50.9641 299.253 51.0261 299.225 51.0944C299.197 51.1626 299.183 51.2359 299.183 51.3098C299.183 51.3838 299.197 51.457 299.225 51.5253C299.253 51.5936 299.293 51.6555 299.344 51.7076C299.395 51.7597 299.456 51.8009 299.523 51.8288C299.589 51.8567 299.661 51.8707 299.733 51.8701H303.828C303.972 51.8689 304.109 51.8094 304.211 51.7044C304.312 51.5995 304.369 51.4577 304.369 51.3098C304.369 51.162 304.312 51.0202 304.211 50.9152C304.109 50.8103 303.972 50.7507 303.828 50.7495Z" fill="white"/>
<path d="M296.472 47.2029H278.286C278.142 47.2029 278.003 47.2619 277.901 47.367C277.798 47.4721 277.741 47.6146 277.741 47.7632C277.741 47.9118 277.798 48.0543 277.901 48.1593C278.003 48.2644 278.142 48.3234 278.286 48.3234H296.455C296.6 48.3234 296.739 48.2644 296.841 48.1593C296.943 48.0543 297.001 47.9118 297.001 47.7632C297.001 47.6146 296.943 47.4721 296.841 47.367C296.739 47.2619 296.6 47.2029 296.455 47.2029H296.472Z" fill="white"/>
<path d="M303.828 47.2029H299.684C299.539 47.2029 299.4 47.2619 299.298 47.367C299.196 47.4721 299.138 47.6146 299.138 47.7632C299.138 47.9118 299.196 48.0543 299.298 48.1593C299.4 48.2644 299.539 48.3234 299.684 48.3234H303.828C303.972 48.3234 304.111 48.2644 304.213 48.1593C304.316 48.0543 304.373 47.9118 304.373 47.7632C304.373 47.6146 304.316 47.4721 304.213 47.367C304.111 47.2619 303.972 47.2029 303.828 47.2029Z" fill="white"/>
<path opacity="0.5" d="M286.466 44.2165C286.466 44.0679 286.408 43.9254 286.306 43.8204C286.204 43.7153 286.065 43.6562 285.92 43.6562H267.38C267.236 43.6562 267.097 43.7153 266.995 43.8204C266.892 43.9254 266.835 44.0679 266.835 44.2165C266.835 44.3651 266.892 44.5076 266.995 44.6127C267.097 44.7178 267.236 44.7768 267.38 44.7768H285.92C286.065 44.7768 286.204 44.7178 286.306 44.6127C286.408 44.5076 286.466 44.3651 286.466 44.2165Z" fill="white"/>
<path opacity="0.5" d="M289.279 43.6562C289.135 43.6563 288.996 43.7153 288.894 43.8204C288.792 43.9254 288.734 44.0679 288.734 44.2165C288.734 44.3651 288.792 44.5076 288.894 44.6127C288.996 44.7178 289.135 44.7768 289.279 44.7768H296.466C296.611 44.7768 296.75 44.7178 296.852 44.6127C296.954 44.5076 297.012 44.3651 297.012 44.2165C297.012 44.0679 296.954 43.9254 296.852 43.8204C296.75 43.7153 296.611 43.6562 296.466 43.6562H289.279Z" fill="white"/>
<path d="M303.828 43.6562H299.733C299.588 43.6563 299.449 43.7153 299.347 43.8204C299.245 43.9254 299.187 44.0679 299.187 44.2165C299.187 44.3651 299.245 44.5076 299.347 44.6127C299.449 44.7178 299.588 44.7768 299.733 44.7768H303.828C303.972 44.7768 304.111 44.7178 304.213 44.6127C304.316 44.5076 304.373 44.3651 304.373 44.2165C304.373 44.0679 304.316 43.9254 304.213 43.8204C304.111 43.7153 303.972 43.6562 303.828 43.6562Z" fill="white"/>
<path d="M290.283 41.2302H293.849C293.994 41.2302 294.132 41.1711 294.235 41.0661C294.337 40.961 294.394 40.8185 294.394 40.6699C294.394 40.5213 294.337 40.3788 294.235 40.2737C294.132 40.1686 293.994 40.1096 293.849 40.1096H290.283C290.138 40.1096 289.999 40.1686 289.897 40.2737C289.795 40.3788 289.737 40.5213 289.737 40.6699C289.737 40.8185 289.795 40.961 289.897 41.0661C289.999 41.1711 290.138 41.2302 290.283 41.2302Z" fill="white"/>
<path opacity="0.5" d="M296.401 41.2302H303.828C303.972 41.2302 304.111 41.1711 304.213 41.0661C304.316 40.961 304.373 40.8185 304.373 40.6699C304.373 40.5213 304.316 40.3788 304.213 40.2737C304.111 40.1686 303.972 40.1096 303.828 40.1096H296.401C296.256 40.1096 296.118 40.1686 296.015 40.2737C295.913 40.3788 295.856 40.5213 295.856 40.6699C295.856 40.8185 295.913 40.961 296.015 41.0661C296.118 41.1711 296.256 41.2302 296.401 41.2302Z" fill="white"/>
<path d="M270.298 37.1233C270.298 36.9747 270.24 36.8322 270.138 36.7271C270.036 36.622 269.897 36.563 269.752 36.563H251.021C250.877 36.563 250.738 36.622 250.636 36.7271C250.534 36.8322 250.476 36.9747 250.476 37.1233C250.476 37.2719 250.534 37.4144 250.636 37.5194C250.738 37.6245 250.877 37.6836 251.021 37.6836H269.736C269.881 37.688 270.021 37.6333 270.126 37.5314C270.231 37.4296 270.293 37.2889 270.297 37.1404L270.298 37.1233Z" fill="white"/>
<path opacity="0.5" d="M272.697 37.6836H278.199C278.344 37.6836 278.482 37.6245 278.584 37.5194C278.687 37.4144 278.744 37.2719 278.744 37.1233C278.744 36.9747 278.687 36.8322 278.584 36.7271C278.482 36.622 278.344 36.563 278.199 36.563H272.697C272.552 36.563 272.414 36.622 272.311 36.7271C272.209 36.8322 272.152 36.9747 272.152 37.1233C272.152 37.2719 272.209 37.4144 272.311 37.5194C272.414 37.6245 272.552 37.6836 272.697 37.6836Z" fill="white"/>
<path opacity="0.5" d="M251.021 34.1372H258.11C258.254 34.136 258.392 34.0765 258.493 33.9715C258.594 33.8666 258.651 33.7247 258.651 33.5769C258.651 33.4291 258.594 33.2872 258.493 33.1823C258.392 33.0773 258.254 33.0178 258.11 33.0166H251.021C250.878 33.0178 250.74 33.0773 250.639 33.1823C250.537 33.2872 250.481 33.4291 250.481 33.5769C250.481 33.7247 250.537 33.8666 250.639 33.9715C250.74 34.0765 250.878 34.136 251.021 34.1372Z" fill="white"/>
<path d="M284.197 33.5767C284.197 33.4281 284.14 33.2856 284.038 33.1805C283.935 33.0754 283.797 33.0164 283.652 33.0164H261.644C261.5 33.0175 261.362 33.0771 261.261 33.182C261.16 33.287 261.103 33.4288 261.103 33.5767C261.103 33.7245 261.16 33.8663 261.261 33.9713C261.362 34.0762 261.5 34.1358 261.644 34.137H283.652C283.797 34.137 283.935 34.0779 284.038 33.9728C284.14 33.8678 284.197 33.7253 284.197 33.5767Z" fill="white"/>
<path d="M251.021 30.5903H263.863C264.007 30.5891 264.145 30.5296 264.246 30.4246C264.347 30.3197 264.404 30.1779 264.404 30.03C264.404 29.8822 264.347 29.7404 264.246 29.6354C264.145 29.5305 264.007 29.4709 263.863 29.4697H251.021C250.878 29.4709 250.74 29.5305 250.639 29.6354C250.537 29.7404 250.481 29.8822 250.481 30.03C250.481 30.1779 250.537 30.3197 250.639 30.4246C250.74 30.5296 250.878 30.5891 251.021 30.5903Z" fill="white"/>
<path opacity="0.5" d="M266.29 30.03C266.29 30.1786 266.347 30.3211 266.449 30.4262C266.552 30.5313 266.69 30.5903 266.835 30.5903H270.014C270.086 30.5909 270.157 30.5769 270.224 30.549C270.291 30.5211 270.351 30.4799 270.402 30.4278C270.454 30.3757 270.494 30.3138 270.522 30.2455C270.549 30.1772 270.564 30.104 270.564 30.03C270.564 29.9561 270.549 29.8829 270.522 29.8146C270.494 29.7463 270.454 29.6843 270.402 29.6323C270.351 29.5802 270.291 29.539 270.224 29.5111C270.157 29.4832 270.086 29.4692 270.014 29.4697H266.835C266.69 29.4697 266.552 29.5288 266.449 29.6338C266.347 29.7389 266.29 29.8814 266.29 30.03Z" fill="white"/>
<path opacity="0.5" d="M251.021 27.0439H266.186C266.331 27.0439 266.469 26.9849 266.572 26.8798C266.674 26.7747 266.731 26.6322 266.731 26.4836C266.731 26.335 266.674 26.1925 266.572 26.0874C266.469 25.9824 266.331 25.9233 266.186 25.9233H251.021C250.877 25.9233 250.738 25.9824 250.636 26.0874C250.534 26.1925 250.476 26.335 250.476 26.4836C250.476 26.6322 250.534 26.7747 250.636 26.8798C250.738 26.9849 250.877 27.0439 251.021 27.0439Z" fill="white"/>
<path d="M277.474 27.0439H289.105C289.25 27.0439 289.388 26.9849 289.491 26.8798C289.593 26.7747 289.65 26.6322 289.65 26.4836C289.65 26.335 289.593 26.1925 289.491 26.0874C289.388 25.9824 289.25 25.9233 289.105 25.9233H277.474C277.329 25.9233 277.19 25.9824 277.088 26.0874C276.986 26.1925 276.928 26.335 276.928 26.4836C276.928 26.6322 276.986 26.7747 277.088 26.8798C277.19 26.9849 277.329 27.0439 277.474 27.0439Z" fill="white"/>
<path d="M139.045 365.441C141.312 364.317 143.659 363.373 146.066 362.618C149.598 361.084 152.639 358.56 154.84 355.334C157.042 352.108 158.316 348.311 158.517 344.376C162.04 345.293 165.673 345.685 169.305 345.54C169.071 348.902 169.163 352.279 169.58 355.623C170.459 358.008 171.093 360.482 171.471 363.003C171.674 363.808 171.681 364.652 171.49 365.46C171.299 366.268 170.917 367.015 170.377 367.635C169.791 368.077 169.115 368.377 168.4 368.513C165.757 369.179 163.019 369.351 160.317 369.02L159.861 367.002C158.972 367.137 158.102 367.383 157.271 367.735C150.898 370.495 140.328 375.247 135.56 371.783C135.464 370.49 135.745 369.197 136.365 368.068C136.986 366.939 137.918 366.024 139.045 365.441Z" fill="#1B00B3"/>
<path d="M177.819 150.12H218.377C218.127 166.112 211.353 181.709 203.414 195.111C194.034 210.947 182.702 225.596 176.743 243.553C171.455 259.487 174.816 271.886 174.711 287.981C174.587 307.168 171.644 330.419 172.3 354.797C166.769 354.287 159.626 354.039 154.095 353.529C152.087 324.333 150.079 295.138 148.07 265.943C147.045 251.043 146.037 235.855 148.96 221.302C154.106 195.676 170.79 174.871 177.819 150.12Z" fill="#1B00B3"/>
<path d="M177.819 150.12H218.377C218.127 166.112 211.353 181.709 203.414 195.111C194.034 210.947 182.702 225.596 176.743 243.553C171.455 259.487 174.816 271.886 174.711 287.981C174.587 307.168 171.644 330.419 172.3 354.797C166.769 354.287 159.626 354.039 154.095 353.529C152.087 324.333 150.079 295.138 148.07 265.943C147.045 251.043 146.037 235.855 148.96 221.302C154.106 195.676 170.79 174.871 177.819 150.12Z" fill="#C778DD"/>
<g opacity="0.1">
<path d="M177.819 150.12H218.377C218.127 166.112 211.353 181.709 203.414 195.111C194.034 210.947 182.702 225.596 176.743 243.553C171.455 259.487 174.816 271.886 174.711 287.981C174.587 307.168 171.644 330.419 172.3 354.797C166.769 354.287 159.626 354.039 154.095 353.529C152.087 324.333 150.079 295.138 148.07 265.943C147.045 251.043 146.037 235.855 148.96 221.302C154.106 195.676 170.79 174.871 177.819 150.12Z" fill="black"/>
</g>
<path d="M92.7406 366.192C94.4289 365.249 96.2558 364.596 98.1491 364.26C106.45 362.079 113.975 357.514 119.843 351.1C120.881 351.485 121.93 351.857 122.99 352.216C125.958 353.225 128.853 354.503 131.84 355.388C130.854 357.756 129.869 360.123 128.883 362.491L128.991 362.526C128.768 365.414 127.782 368.185 126.14 370.541C125.779 371.129 125.28 371.616 124.69 371.957C124.128 372.19 123.527 372.309 122.921 372.308C120.031 372.49 117.141 372.672 114.251 372.855L114.445 370.835C113.348 371.14 112.251 371.443 111.151 371.706C104.7 373.354 97.9625 373.428 91.4782 371.922C91.1395 370.942 91.0784 369.884 91.3018 368.869C91.5253 367.855 92.0242 366.926 92.7406 366.192Z" fill="#1B00B3"/>
<path d="M216.309 144.117H230.311C235.3 163.147 228.415 183.93 220.507 201.806C206.947 231.061 191.825 259.524 175.209 287.064C162.233 309.472 144.316 339.882 131.34 362.291C127.575 360.473 117.134 357.825 113.368 356.007C135.997 291.338 166.488 217.703 181.431 150.051L216.309 144.117Z" fill="#C778DD"/>
<path d="M238.864 115.29C234.989 136.081 235.374 146.748 234.02 151.93C232.667 157.112 221.164 161.094 201.337 160.59C181.509 160.086 176.45 153.437 175.58 150.694C176.29 140.457 177.659 130.281 179.677 120.23C181.69 108.395 183.932 96.4941 185.199 91.4449C186.8 84.9238 188.935 78.5534 191.581 72.402C195.223 66.9437 199.845 62.2489 205.198 58.5689C213.687 52.9308 218.841 51.7401 223.362 54.6902C229.479 59.0934 234.797 64.5646 239.075 70.8551C239.387 71.3654 239.671 71.8928 239.927 72.4349C242.599 78.204 242.739 94.4989 238.864 115.29Z" fill="#1B00B3"/>
<path opacity="0.1" d="M234.392 125.57C229.495 142.412 227.046 150.833 221.75 154.238C205.671 164.577 177.869 142.868 176.499 141.775C177.559 134.593 178.618 127.412 179.677 120.23C190.688 121.157 203.659 119.804 208.988 109.849C216.799 95.2545 219.045 76.6984 239.075 70.8552C239.421 73.2278 239.854 76.6986 240.104 80.9052C240.787 96.0234 238.853 111.146 234.392 125.57Z" fill="black"/>
<path d="M238.902 90.4929C235.316 106.836 230.569 122.886 224.7 138.516C222.765 143.058 220.924 146.188 219.409 146.763C213.279 149.078 204.347 145.421 194.903 138.654C185.459 131.888 173.088 124.026 174.048 117.032C174.955 112.578 177.467 108.642 181.08 106.011C182.818 104.463 185.07 103.666 187.367 103.786C191.894 104.623 203.78 114.624 203.78 114.624C205.866 110.337 207.501 105.834 208.658 101.191C211.978 90.1884 216.439 63.7578 230.415 65.3331C241.782 66.6156 240.916 80.6724 238.902 90.4929Z" fill="#1B00B3"/>
<path d="M185.955 106.018L179.626 99.7772C177.932 99.6939 176.243 100.017 174.693 100.722C173.142 101.426 171.773 102.492 170.693 103.835C169.896 104.797 169.377 105.97 169.198 107.221C169.019 108.471 169.185 109.748 169.679 110.906L175.842 117.968C178.504 117.256 180.894 115.734 182.699 113.601C184.503 111.468 185.639 108.825 185.955 106.018Z" fill="#1B00B3"/>
<path d="M175.549 92.5937C175.48 92.4573 179.211 83.6373 179.718 81.9743C180.225 80.3112 177.805 79.9435 176.077 82.6973C174.349 85.4512 174.381 85.3473 173.699 86.5658C173.016 87.7844 175.549 92.5937 175.549 92.5937Z" fill="#D6A5AC"/>
<path opacity="0.1" d="M175.549 92.5937C175.48 92.4573 179.211 83.6373 179.718 81.9743C180.225 80.3112 177.805 79.9435 176.077 82.6973C174.349 85.4512 174.381 85.3473 173.699 86.5658C173.016 87.7844 175.549 92.5937 175.549 92.5937Z" fill="black"/>
<path d="M156.514 86.4076L156.463 83.583L186.224 83.0225C186.588 83.0156 186.941 83.1578 187.203 83.4179C187.466 83.6779 187.617 84.0344 187.623 84.409C187.63 84.7835 187.492 85.1455 187.239 85.4152C186.986 85.6849 186.639 85.8403 186.274 85.8472L156.514 86.4076Z" fill="#C778DD"/>
<path d="M156.463 83.583L152.331 84.8184C152.253 84.8415 152.186 84.8907 152.138 84.958C152.091 85.0253 152.068 85.1068 152.071 85.1896C152.074 85.2724 152.104 85.3517 152.157 85.4148C152.209 85.4779 152.28 85.5212 152.359 85.5377L156.514 86.4076L156.463 83.583Z" fill="#C778DD"/>
<path d="M163.495 91.8218C163.792 95.8607 164.337 99.8764 165.125 103.845C165.874 105.912 169.815 106.028 170.035 106.033C171.01 107.027 171.985 108.021 172.96 109.015C175.837 107.667 178.331 105.585 180.205 102.969C179.793 102.464 179.382 101.96 178.971 101.455C177.894 100.135 177.288 98.4753 177.256 96.7524C177.229 95.3373 177.198 93.5883 177.166 91.5924C177.116 88.387 177.413 87.419 176.748 86.0265C175.606 84.1382 173.902 82.6782 171.889 81.8627C169.816 80.7082 168.672 80.0716 167.184 80.3106C165.518 80.7516 164.058 81.787 163.067 83.2319C162.522 83.8364 159.66 87.0114 160.546 88.795C160.641 88.9862 160.704 89.0103 161.582 89.8752C162.416 90.6962 163.073 91.3782 163.495 91.8218Z" fill="#D6A5AC"/>
<path opacity="0.1" d="M165.125 103.845C165.874 105.912 169.815 106.029 170.035 106.033C171.007 107.024 171.978 108.014 172.95 109.005L172.995 108.999C173.767 108.633 174.513 108.214 175.23 107.745C173.248 107.174 171.437 106.102 169.962 104.626C165.53 100.095 167.039 93.0759 167.45 89.5206C165.574 87.8411 163.959 85.8763 162.66 83.6956C161.714 84.8023 159.799 87.2907 160.546 88.7951C160.641 88.9862 160.704 89.0104 161.582 89.8753C162.416 90.6963 163.073 91.3783 163.494 91.8219C163.792 95.8608 164.337 99.8765 165.125 103.845Z" fill="black"/>
<path d="M169.289 106.219C169.445 106.599 169.673 106.942 169.961 107.229C170.249 107.515 170.59 107.739 170.965 107.886C173.2 108.611 176.711 105.421 179.626 99.7773C180.519 102.492 181.412 105.206 182.305 107.921C181.654 109.678 180.38 111.116 178.738 111.946C177.096 112.776 175.21 112.936 173.458 112.394C172.271 111.867 171.252 111.009 170.516 109.918C169.779 108.826 169.354 107.545 169.289 106.219Z" fill="#1B00B3"/>
<path d="M219.461 54.5257C214.904 59.7786 208.868 63.4429 202.192 65.0095L201.466 54.9868L200.717 44.7282L211.161 26.4822L214.21 30.0658L216.503 37.8195C216.956 40.3918 217.448 43.1783 217.903 45.7502C218.421 48.6749 218.94 51.6001 219.461 54.5257Z" fill="#D6A5AC"/>
<path opacity="0.1" d="M209.988 34.4937C211.13 39.7268 210.576 45.2 208.411 50.0798C206.857 53.477 204.55 56.4528 201.675 58.7688L201 46.6588L206.021 28.9058L209.988 34.4937Z" fill="black"/>
<path d="M211.426 43.2864C210.65 44.0761 209.81 44.7976 208.917 45.4434C208.57 45.7013 208.234 45.9268 207.86 46.1578C207.839 46.1686 207.813 46.1954 207.792 46.2062C207.525 46.3905 207.248 46.5591 206.962 46.711C206.749 46.8221 194.628 52.637 189.852 47.7542C188.761 46.6393 187.996 43.0534 186.466 35.8818C186.268 34.9551 186.114 34.1868 186.012 33.667C185.389 33.3923 184.767 33.1177 184.145 32.843L187.466 26.9723L187.476 26.9399C187.893 25.6533 188.382 24.3922 188.939 23.1628C189.755 21.4107 190.572 19.6586 191.388 17.9065C191.695 16.9311 192.001 15.9555 192.307 14.9798C193.221 15.0198 194.137 14.9452 195.034 14.7575C197.671 14.2018 198.34 12.6602 200.039 12.4032C201.917 12.2535 203.804 12.4969 205.587 13.1187C207.371 13.7405 209.012 14.7278 210.413 16.0207C212.046 17.3712 213.438 19.0025 214.528 20.8419C215.599 22.5863 216.368 24.5076 216.803 26.5211C217.369 29.5548 217.172 32.6868 216.231 35.6206C215.291 38.5544 213.636 41.1929 211.426 43.2864Z" fill="#D6A5AC"/>
<path d="M205.616 32.9813C205.586 32.9391 205.574 32.8996 205.544 32.8574C205.466 32.6573 205.369 32.4542 205.276 32.233C204.685 30.6919 204.393 29.0472 204.415 27.391C204.423 26.9803 204.437 26.5331 204.472 26.0704C204.287 26.7724 203.925 27.4116 203.421 27.9229C203.322 28.0318 203.209 28.127 203.086 28.206C202.412 28.5942 201.656 28.8053 200.884 28.8206C200.112 28.836 199.348 28.6551 198.66 28.294C196.752 27.6082 194.997 26.5341 193.501 25.136C192.006 23.7378 190.8 22.0443 189.955 20.1566L189.95 20.1932L188.634 24.0081C187.079 22.5441 185.828 20.7723 184.956 18.7991C184.084 16.8258 183.609 14.6919 183.56 12.5254C183.667 7.91539 186.192 2.27374 188.899 2.33803C190.863 2.37544 192.342 5.44417 192.958 6.89299C194.79 4.41843 197.233 2.49237 200.033 1.31452C204.27 -0.396333 209.996 -0.517187 210.773 1.42605C211.054 2.08975 210.872 3.39048 208.132 6.03769C208.674 6.06928 209.219 6.08246 209.74 6.12956C211.622 6.22862 213.313 6.37187 214.852 6.56502C221.645 7.32919 225.228 8.7284 225.603 10.7627C225.872 12.2115 224.487 13.9912 221.467 16.0868C222.669 16.6363 223.724 17.4782 224.539 18.5398C228.485 23.8009 225.557 34.4916 217.556 45.264C216.689 43.2901 215.572 41.4426 214.234 39.7696C211.895 36.869 208.95 34.5486 205.616 32.9813Z" fill="black"/>
<path d="M203.871 29.1514C204.036 27.5852 204.653 26.1054 205.642 24.9016C206.151 24.3177 206.842 23.9332 207.596 23.8135C208.351 23.6937 209.122 23.8461 209.78 24.2447C210.361 24.7347 210.784 25.3951 210.992 26.1381C211.469 27.7103 211.433 29.3997 210.89 30.9491C210.346 32.4984 209.325 33.8227 207.981 34.7203C207.468 35.0952 206.847 35.2803 206.219 35.2453C205.908 35.2163 205.618 35.0714 205.404 34.8379C205.19 34.6043 205.066 34.2984 205.056 33.9776" fill="#D6A5AC"/>
</g>
<defs>
<clipPath id="clip0_507_1858">
<rect width="363" height="373" fill="white"/>
</clipPath>
</defs>
</svg>
