<svg width="355" height="342" viewBox="0 0 355 342" fill="none" xmlns="http://www.w3.org/2000/svg">
<g id="b40140">
<g id="Group">
<g id="Group_2">
<path id="Vector" d="M192.73 318.167C192.73 318.167 192.711 331.908 213.394 337.581C216.181 342.936 183.38 343.135 174.966 338.328C166.551 333.522 177.607 312.033 177.607 312.033L192.73 318.167Z" fill="#D6A5AC"/>
<path id="Vector_2" d="M235.903 295.971C235.903 295.971 243.471 306.122 261.157 299.248C266.073 301.71 243.099 319.397 234.525 320.35C225.951 321.302 221.876 299.531 221.876 299.531L235.903 295.971Z" fill="#D6A5AC"/>
<path id="Vector_3" d="M92.0381 166.757H68.8014V187.955L93.8154 260.036L156.565 253.68L116.411 233.14L92.0381 166.757Z" fill="#1B00B3"/>
<path id="Vector_4" opacity="0.1" d="M92.0381 166.757H68.8014V187.955L93.8154 260.036L156.442 253.684L116.411 233.14L92.0381 166.757Z" fill="black"/>
<path id="Vector_5" opacity="0.1" d="M144.145 110.628L142.722 116.28C138.432 113.811 133.616 108.716 132.582 98.317C134.129 96.5554 135.098 95.5928 135.098 95.5928L144.145 110.628Z" fill="black"/>
<path id="Vector_6" d="M196.195 321.874C203.777 297.775 206.592 272.411 204.482 247.22C195.22 238.052 185.958 228.884 176.696 219.716L127.317 251.477C127.317 251.477 175.396 250.167 176.696 265.556C177.996 280.945 174.096 318.273 174.096 318.273L196.195 321.874Z" fill="black"/>
<path id="Vector_7" d="M135.987 265.448L145.823 340.538H151.394L141.273 265.448H135.987Z" fill="black"/>
<path id="Vector_8" d="M106.131 259.553L96.2929 340.305H90.7215L100.843 259.553H106.131Z" fill="black"/>
<path id="Vector_9" d="M144.143 110.626L138.591 132.619C138.591 132.619 120.555 135.238 117.549 120.831C122.094 111.57 128.011 103.058 135.098 95.5902L144.143 110.626Z" fill="#D6A5AC"/>
<path id="Vector_10" opacity="0.1" d="M144.145 110.628L142.722 116.28C138.432 113.811 133.616 108.716 132.582 98.317C134.129 96.5554 135.098 95.5928 135.098 95.5928L144.145 110.628Z" fill="black"/>
<path id="Vector_11" d="M164.996 86.7783C164.996 86.7783 163.128 104.664 162.64 105.647C162.153 106.629 158.822 105.933 158.822 105.933C158.822 105.933 154.843 118.539 153.42 118.539C151.997 118.539 136.56 116.738 136.073 95.1279C135.585 73.5173 162.234 77.6104 162.234 77.6104L164.996 86.7783Z" fill="#D6A5AC"/>
<path id="Vector_12" d="M136.642 98.4841H138.916C138.916 98.4841 138.835 82.4399 153.866 89.2342C156.494 90.4767 159.32 91.238 162.213 91.4825C164.053 91.5845 165.895 91.3161 167.632 90.6929C169.368 90.0697 170.964 89.1042 172.326 87.8529C173.688 86.6016 174.789 85.0894 175.564 83.4047C176.34 81.72 176.775 79.8965 176.843 78.0407C177.218 69.6347 174.866 57.8928 157.245 63.5988C155.611 64.1363 154.085 64.9625 152.739 66.0385C148.773 69.1817 146.444 71.1823 145.077 72.4435C143.754 73.6654 142.023 74.3422 140.228 74.3399C135.379 74.3386 126.156 75.5763 125.917 84.9776C125.592 97.7474 136.642 98.4841 136.642 98.4841Z" fill="black"/>
<path id="Vector_13" d="M132.582 94.5822C132.582 92.1868 133.854 90.2451 135.424 90.2451C136.993 90.2451 138.265 92.1868 138.265 94.5822C138.265 96.9776 136.993 98.9192 135.424 98.9192C133.855 98.9192 132.582 96.9774 132.582 94.5822Z" fill="#D6A5AC"/>
<path id="Vector_14" d="M145.985 123.566C145.985 123.566 158.497 126.616 164.996 143.206C171.496 159.796 188.612 172.182 200.744 174.939C212.877 177.695 199.445 191.666 199.445 191.666C199.445 191.666 170.196 197.941 148.422 165.853C126.648 133.765 145.985 123.566 145.985 123.566Z" fill="#C778DD"/>
<path id="Vector_15" opacity="0.1" d="M146.427 123.566C146.427 123.566 158.497 126.616 164.996 143.206C171.496 159.796 188.612 172.182 200.745 174.939C212.877 177.695 199.445 191.666 199.445 191.666C199.445 191.666 170.196 197.941 148.422 165.853C126.648 133.765 146.427 123.566 146.427 123.566Z" fill="black"/>
<path id="Vector_16" d="M165.646 176.249L180.209 179.627L179.62 189.265L166.134 190.246L165.646 176.249Z" fill="#D6A5AC"/>
<path id="Vector_17" d="M119.658 116.737C108.027 119.812 97.6232 126.433 89.8704 135.694C81.0328 154.983 78.0848 182.284 90.2335 234.278C90.2335 234.278 106.662 219.716 147.447 203.505C142.247 167.569 148.422 165.853 148.422 165.853L150.884 131.819C150.982 130.543 150.796 129.261 150.341 128.066C149.885 126.871 149.17 125.794 148.249 124.912C147.327 124.031 146.222 123.368 145.014 122.971C143.807 122.574 142.526 122.454 141.266 122.619C141.214 122.626 141.162 122.634 141.11 122.642C141.706 127.489 123.231 126.122 119.658 116.737Z" fill="#C778DD"/>
<path id="Vector_18" d="M198.632 177.968C198.632 177.968 186.16 174.003 180.209 179.628C174.258 185.254 179.62 189.265 179.62 189.265L197.495 187.054L198.632 177.968Z" fill="#D6A5AC"/>
<path id="Vector_19" d="M266.166 140.671H206.35C205.493 140.671 204.659 140.954 203.977 141.478C203.295 142.001 202.803 142.736 202.575 143.569L190.975 186.044C190.815 186.63 190.792 187.245 190.906 187.841C191.021 188.437 191.27 188.999 191.636 189.482C192.001 189.965 192.472 190.356 193.012 190.626C193.553 190.895 194.147 191.036 194.75 191.036H254.565C255.423 191.036 256.257 190.752 256.939 190.229C257.62 189.705 258.113 188.97 258.34 188.137L269.941 145.662C270.101 145.077 270.124 144.462 270.01 143.865C269.895 143.269 269.646 142.708 269.28 142.225C268.915 141.742 268.444 141.35 267.904 141.08C267.363 140.811 266.769 140.671 266.166 140.671Z" fill="black"/>
<path id="Vector_20" d="M179.511 189.962H253.839C254.856 189.962 255.832 190.222 256.552 190.686C257.271 191.149 257.675 191.778 257.675 192.434V193.489C257.675 194.145 257.271 194.774 256.552 195.237C255.832 195.701 254.856 195.962 253.839 195.962H179.511C178.494 195.962 177.518 195.701 176.799 195.237C176.079 194.774 175.675 194.145 175.675 193.489V192.434C175.675 192.109 175.774 191.788 175.967 191.488C176.16 191.188 176.442 190.915 176.799 190.686C177.155 190.456 177.578 190.274 178.043 190.15C178.508 190.026 179.007 189.962 179.511 189.962Z" fill="black"/>
<path id="Vector_21" d="M273.466 202.817H266.701V340.538H273.466V202.817Z" fill="#1B00B3"/>
<path id="Vector_22" opacity="0.1" d="M273.466 202.817H266.701V340.538H273.466V202.817Z" fill="black"/>
<path id="Vector_23" d="M68.8013 166.756C68.8013 166.756 90.6652 253.737 95.3608 255.587C98.56 256.847 134.385 250.268 155.067 253.325C156.252 253.503 157.367 253.998 158.298 254.759C159.228 255.519 159.939 256.516 160.357 257.647C160.923 259.438 160.852 261.371 160.157 263.115C159.461 264.859 158.185 266.304 156.547 267.203C151.507 270.118 111.302 268.78 96.3213 268.172C94.6755 268.105 93.0885 267.537 91.7701 266.542C90.4517 265.547 89.464 264.173 88.9376 262.6L60.0267 176.249C60.0267 176.249 60.3517 167.168 68.8013 166.756Z" fill="#1B00B3"/>
<path id="Vector_24" d="M168.974 175.735V195.073C168.786 195.158 168.597 195.237 168.409 195.322C150.372 203.18 93.9761 202.022 83.1086 159.979C83.62 152.388 85.877 135.886 98.2044 127.097C99.2097 126.38 100.26 125.73 101.348 125.151C101.348 125.151 122.209 169.782 139.459 173.057C151.347 175.316 161.682 174.851 168.974 175.735Z" fill="#C778DD"/>
<path id="Vector_25" opacity="0.1" d="M168.974 175.735V195.073C168.786 195.158 168.597 195.237 168.409 195.322C150.372 203.18 93.9761 202.022 83.1086 159.979C85.6679 130.098 101.348 125.151 101.348 125.151C101.348 125.151 122.209 169.782 139.459 173.057C151.347 175.316 161.682 174.851 168.974 175.735Z" fill="black"/>
<path id="Vector_26" d="M286.323 193.767H158.533V202.817H286.323V193.767Z" fill="#1B00B3"/>
<path id="Vector_27" opacity="0.1" d="M286.323 193.767H158.533V202.817H286.323V193.767Z" fill="black"/>
<g id="Group_3">
<path id="Vector_28" d="M88.3589 225.482C88.3589 225.482 91.875 256.224 111.916 257.37C122.64 257.984 151.434 248.098 170.433 240.513C175.561 238.464 181.247 238.333 186.462 240.144C191.676 241.955 196.075 245.588 198.861 250.385C207.587 265.424 215.802 288.804 221.76 304.739L241.042 295.571L221.228 238.222C219.357 232.654 216.295 227.569 212.259 223.325C208.223 219.081 203.311 215.782 197.87 213.662C181.841 207.425 158.973 200.066 147.447 203.505C128.598 209.129 88.3589 225.482 88.3589 225.482Z" fill="black"/>
<path id="Vector_29" opacity="0.05" d="M88.3589 225.482C88.3589 225.482 91.875 256.224 111.916 257.37C122.64 257.984 151.434 248.098 170.433 240.513C175.561 238.464 181.247 238.333 186.462 240.144C191.676 241.955 196.075 245.588 198.861 250.385C207.587 265.424 215.802 288.804 221.76 304.739L241.042 295.571L221.228 238.222C219.357 232.654 216.295 227.569 212.259 223.325C208.223 219.081 203.311 215.782 197.87 213.662C181.841 207.425 158.973 200.066 147.447 203.505C128.598 209.129 88.3589 225.482 88.3589 225.482Z" fill="white"/>
</g>
<path id="Vector_30" d="M170.034 202.817H163.268V340.538H170.034V202.817Z" fill="#1B00B3"/>
<path id="Vector_31" opacity="0.1" d="M170.034 202.817H163.268V340.538H170.034V202.817Z" fill="black"/>
<path id="Rectangle 31" d="M206.09 142.962L208.29 143.622L205.875 151.664L203.675 151.003L206.09 142.962Z" fill="#978585"/>
</g>
<path id="Lenovo" d="M206.002 150.653C205.99 150.694 205.967 150.734 205.934 150.773C205.902 150.811 205.859 150.839 205.805 150.856C205.75 150.872 205.685 150.869 205.61 150.847C205.522 150.821 205.43 150.786 205.336 150.741C205.242 150.697 205.15 150.648 205.058 150.595C204.966 150.54 204.88 150.484 204.799 150.427C204.719 150.37 204.648 150.316 204.586 150.265C204.525 150.212 204.479 150.167 204.447 150.128C204.414 150.089 204.4 150.061 204.406 150.043C204.413 150.019 204.428 150.001 204.452 149.99C204.477 149.978 204.506 149.977 204.541 149.987C204.555 149.991 204.586 150.009 204.633 150.041C204.68 150.073 204.738 150.113 204.809 150.161C204.879 150.21 204.955 150.262 205.038 150.318C205.12 150.373 205.204 150.427 205.288 150.479C205.373 150.532 205.454 150.579 205.531 150.619C205.608 150.66 205.675 150.689 205.733 150.706C205.749 150.71 205.767 150.711 205.785 150.706C205.801 150.701 205.813 150.689 205.819 150.668C205.827 150.64 205.832 150.598 205.835 150.542C205.838 150.484 205.84 150.422 205.84 150.354C205.839 150.285 205.838 150.22 205.837 150.157C205.836 150.094 205.835 150.041 205.834 149.997C205.833 149.954 205.833 149.93 205.835 149.925C205.839 149.909 205.847 149.898 205.859 149.89C205.87 149.882 205.884 149.881 205.9 149.886C205.921 149.892 205.94 149.914 205.958 149.953C205.976 149.99 205.991 150.037 206.004 150.095C206.016 150.152 206.024 150.213 206.029 150.28C206.034 150.347 206.035 150.413 206.031 150.478C206.027 150.543 206.018 150.601 206.002 150.653ZM205.574 148.713C205.615 148.725 205.651 148.749 205.683 148.786C205.714 148.823 205.741 148.868 205.765 148.921C205.787 148.973 205.806 149.029 205.821 149.09C205.837 149.15 205.849 149.209 205.857 149.267C205.865 149.325 205.87 149.377 205.871 149.423C205.918 149.448 205.961 149.466 205.999 149.478C206.024 149.485 206.043 149.484 206.056 149.475C206.07 149.467 206.08 149.451 206.087 149.426C206.103 149.372 206.11 149.313 206.109 149.247C206.107 149.181 206.1 149.112 206.088 149.041C206.076 148.969 206.061 148.899 206.043 148.832C206.025 148.764 206.008 148.702 205.991 148.646C205.975 148.588 205.962 148.54 205.952 148.503C205.942 148.465 205.939 148.441 205.942 148.431C205.946 148.416 205.955 148.406 205.967 148.401C205.979 148.395 205.991 148.393 206.004 148.397C206.014 148.4 206.029 148.422 206.049 148.462C206.07 148.502 206.092 148.554 206.116 148.618C206.139 148.681 206.162 148.752 206.184 148.829C206.205 148.906 206.224 148.985 206.239 149.066C206.254 149.146 206.264 149.222 206.266 149.293C206.269 149.364 206.263 149.424 206.248 149.475C206.229 149.542 206.188 149.586 206.128 149.609C206.067 149.631 205.984 149.627 205.879 149.596C205.809 149.576 205.74 149.546 205.674 149.507C205.608 149.467 205.547 149.421 205.491 149.37C205.434 149.317 205.386 149.263 205.347 149.209C205.306 149.152 205.278 149.098 205.262 149.044C205.244 148.99 205.241 148.942 205.254 148.9C205.278 148.819 205.319 148.763 205.377 148.73C205.435 148.697 205.501 148.691 205.574 148.713ZM205.736 149.34C205.723 149.293 205.709 149.244 205.695 149.194C205.68 149.144 205.664 149.097 205.647 149.053C205.629 149.009 205.608 148.971 205.584 148.941C205.559 148.908 205.529 148.887 205.496 148.877C205.449 148.863 205.418 148.882 205.403 148.933C205.393 148.965 205.404 149.005 205.434 149.053C205.464 149.099 205.506 149.148 205.56 149.198C205.615 149.249 205.673 149.296 205.736 149.34ZM206.484 148.508C206.473 148.545 206.442 148.573 206.391 148.59C206.341 148.607 206.282 148.605 206.215 148.586C206.142 148.564 206.067 148.532 205.99 148.488C205.913 148.443 205.835 148.394 205.758 148.339C205.68 148.284 205.605 148.231 205.532 148.179C205.518 148.168 205.508 148.155 205.504 148.141C205.499 148.126 205.5 148.105 205.507 148.08C205.521 148.034 205.55 148.017 205.595 148.03C205.605 148.033 205.626 148.045 205.659 148.066C205.692 148.087 205.732 148.113 205.78 148.145C205.828 148.176 205.88 148.209 205.937 148.243C205.992 148.278 206.048 148.31 206.106 148.341C206.164 148.372 206.218 148.398 206.269 148.418C206.253 148.391 206.227 148.358 206.189 148.32C206.152 148.28 206.11 148.236 206.063 148.189C206.014 148.141 205.966 148.092 205.919 148.042C205.869 147.992 205.825 147.943 205.787 147.895C205.747 147.846 205.717 147.801 205.697 147.76C205.676 147.718 205.67 147.683 205.678 147.655C205.69 147.614 205.713 147.583 205.747 147.562C205.78 147.54 205.83 147.53 205.897 147.533C205.963 147.535 206.053 147.552 206.165 147.585C206.225 147.603 206.283 147.614 206.339 147.617C206.395 147.62 206.443 147.613 206.483 147.595C206.522 147.576 206.548 147.545 206.561 147.501C206.58 147.436 206.586 147.374 206.578 147.316C206.568 147.258 206.554 147.206 206.536 147.16C206.516 147.113 206.499 147.073 206.483 147.041C206.467 147.008 206.46 146.985 206.465 146.971C206.473 146.941 206.493 146.931 206.524 146.94C206.536 146.944 206.554 146.959 206.576 146.987C206.598 147.013 206.621 147.047 206.646 147.091C206.67 147.132 206.692 147.179 206.711 147.231C206.73 147.281 206.743 147.332 206.749 147.386C206.756 147.438 206.753 147.487 206.739 147.535C206.713 147.623 206.674 147.69 206.623 147.736C206.573 147.781 206.504 147.805 206.416 147.809C206.33 147.811 206.22 147.793 206.087 147.754C206.014 147.732 205.959 147.721 205.923 147.72C205.887 147.718 205.859 147.726 205.841 147.744C205.864 147.768 205.896 147.799 205.939 147.838C205.98 147.876 206.027 147.92 206.077 147.97C206.128 148.018 206.18 148.069 206.231 148.121C206.281 148.172 206.327 148.222 206.368 148.272C206.409 148.322 206.441 148.367 206.463 148.408C206.485 148.449 206.492 148.483 206.484 148.508ZM207.008 146.958C206.986 147.033 206.94 147.084 206.869 147.111C206.799 147.138 206.718 147.137 206.626 147.11C206.592 147.101 206.559 147.086 206.524 147.066C206.489 147.044 206.458 147.022 206.432 146.997C206.42 147.003 206.406 147.007 206.389 147.008C206.371 147.008 206.35 147.004 206.325 146.997C206.25 146.975 206.185 146.942 206.129 146.898C206.074 146.854 206.03 146.804 205.996 146.748C205.961 146.692 205.938 146.635 205.928 146.576C205.918 146.516 205.92 146.459 205.936 146.406C205.962 146.317 206.015 146.255 206.095 146.219C206.174 146.182 206.278 146.183 206.407 146.221C206.475 146.241 206.541 146.271 206.606 146.312C206.67 146.352 206.73 146.399 206.785 146.453C206.841 146.505 206.888 146.561 206.926 146.621C206.964 146.68 206.991 146.738 207.007 146.797C207.022 146.854 207.023 146.908 207.008 146.958ZM206.404 146.851C206.416 146.847 206.431 146.847 206.447 146.852C206.466 146.857 206.485 146.867 206.501 146.88C206.519 146.892 206.543 146.907 206.574 146.924C206.605 146.942 206.651 146.959 206.713 146.977C206.774 146.996 206.812 146.98 206.826 146.932C206.842 146.878 206.835 146.822 206.807 146.763C206.777 146.704 206.733 146.647 206.676 146.591C206.619 146.536 206.554 146.487 206.483 146.445C206.411 146.402 206.341 146.37 206.272 146.35C206.227 146.337 206.193 146.336 206.17 146.347C206.146 146.358 206.128 146.385 206.115 146.429C206.102 146.474 206.103 146.525 206.12 146.582C206.135 146.638 206.164 146.69 206.206 146.737C206.248 146.784 206.3 146.817 206.364 146.836C206.379 146.84 206.392 146.845 206.404 146.851ZM207.223 145.977C207.218 145.996 207.198 146.011 207.164 146.022C207.131 146.032 207.087 146.034 207.033 146.027C206.977 146.021 206.913 146.011 206.842 145.998C206.77 145.986 206.701 145.972 206.633 145.958C206.565 145.943 206.505 145.93 206.453 145.917C206.401 145.905 206.366 145.896 206.348 145.891C206.281 145.871 206.235 145.847 206.209 145.817C206.182 145.785 206.174 145.753 206.184 145.72C206.19 145.697 206.202 145.682 206.217 145.675C206.232 145.669 206.26 145.671 206.302 145.684C206.331 145.692 206.367 145.702 206.412 145.714C206.458 145.726 206.507 145.738 206.56 145.751C206.623 145.767 206.691 145.784 206.762 145.802C206.832 145.82 206.901 145.838 206.969 145.856C206.927 145.811 206.88 145.759 206.829 145.701C206.778 145.641 206.727 145.581 206.674 145.52C206.62 145.458 206.568 145.398 206.52 145.341C206.471 145.284 206.429 145.233 206.393 145.189C206.358 145.145 206.332 145.112 206.316 145.09C206.297 145.06 206.285 145.035 206.28 145.014C206.276 144.992 206.275 144.974 206.279 144.96C206.285 144.941 206.297 144.927 206.314 144.92C206.332 144.911 206.354 144.911 206.379 144.918C206.395 144.923 206.411 144.931 206.428 144.943C206.445 144.953 206.46 144.969 206.475 144.988C206.518 145.038 206.567 145.098 206.623 145.167C206.679 145.236 206.737 145.308 206.797 145.383C206.857 145.457 206.916 145.53 206.973 145.601C207.029 145.672 207.078 145.733 207.121 145.786C207.199 145.88 207.233 145.944 207.223 145.977ZM207.604 144.928C207.582 145.004 207.536 145.055 207.465 145.081C207.395 145.108 207.314 145.108 207.222 145.081C207.188 145.071 207.154 145.056 207.12 145.036C207.085 145.015 207.054 144.992 207.028 144.968C207.016 144.974 207.002 144.977 206.985 144.978C206.967 144.978 206.946 144.975 206.921 144.968C206.846 144.945 206.78 144.912 206.725 144.868C206.67 144.824 206.626 144.775 206.592 144.719C206.557 144.663 206.534 144.605 206.524 144.547C206.514 144.487 206.516 144.43 206.532 144.376C206.558 144.288 206.611 144.226 206.691 144.189C206.77 144.153 206.874 144.153 207.003 144.191C207.071 144.211 207.137 144.242 207.202 144.283C207.266 144.323 207.326 144.369 207.381 144.423C207.437 144.476 207.484 144.532 207.522 144.592C207.56 144.65 207.587 144.709 207.603 144.768C207.618 144.825 207.619 144.878 207.604 144.928ZM207 144.822C207.012 144.817 207.027 144.817 207.043 144.822C207.062 144.828 207.08 144.837 207.097 144.85C207.115 144.863 207.139 144.877 207.17 144.895C207.201 144.912 207.247 144.93 207.309 144.948C207.37 144.966 207.408 144.951 207.422 144.902C207.438 144.848 207.431 144.792 207.403 144.734C207.373 144.675 207.329 144.618 207.272 144.562C207.214 144.506 207.15 144.457 207.079 144.416C207.007 144.372 206.937 144.341 206.867 144.32C206.823 144.307 206.789 144.306 206.766 144.318C206.742 144.329 206.724 144.356 206.711 144.399C206.698 144.444 206.699 144.495 206.716 144.553C206.731 144.609 206.76 144.66 206.802 144.707C206.844 144.754 206.896 144.787 206.96 144.806C206.974 144.81 206.987 144.815 207 144.822Z" fill="black"/>
</g>
<g id="Group_4">
<path id="Vector_32" d="M348.754 0H209.845C206.432 0 203.665 2.78739 203.665 6.22581V94.8813C203.665 98.3197 206.432 101.107 209.845 101.107H348.754C352.167 101.107 354.933 98.3197 354.933 94.8813V6.22581C354.933 2.78739 352.167 0 348.754 0Z" fill="#C778DD"/>
<path id="Vector_33" d="M349.99 11.6215H208.609V97.2886H349.99V11.6215Z" fill="#C778DD"/>
<path id="Vector_34" opacity="0.3" d="M349.99 11.6215H208.609V97.2886H349.99V11.6215Z" fill="white"/>
<path id="Vector_35" d="M316.375 26.3974H218.99C218.6 26.3974 218.215 26.3201 217.855 26.1699C217.495 26.0198 217.168 25.7996 216.892 25.5221C216.617 25.2446 216.399 24.9152 216.25 24.5526C216.1 24.19 216.024 23.8014 216.024 23.409C216.024 22.6164 216.336 21.8563 216.892 21.2959C217.449 20.7354 218.203 20.4206 218.99 20.4206H316.375C317.161 20.4206 317.916 20.7354 318.472 21.2959C319.028 21.8563 319.341 22.6164 319.341 23.409C319.341 23.8014 319.264 24.19 319.115 24.5526C318.966 24.9152 318.747 25.2446 318.472 25.5221C318.197 25.7996 317.87 26.0198 317.51 26.1699C317.15 26.3201 316.764 26.3974 316.375 26.3974Z" fill="white"/>
<path id="Vector_36" d="M268.671 38.6H218.99C218.6 38.6 218.215 38.5227 217.855 38.3725C217.495 38.2223 217.168 38.0022 216.892 37.7247C216.617 37.4472 216.399 37.1178 216.25 36.7552C216.1 36.3926 216.024 36.004 216.024 35.6116C216.024 34.819 216.336 34.0589 216.892 33.4984C217.449 32.938 218.203 32.6232 218.99 32.6232H268.671C269.458 32.6232 270.212 32.938 270.768 33.4984C271.325 34.0589 271.637 34.819 271.637 35.6116C271.637 36.004 271.56 36.3926 271.411 36.7552C271.262 37.1178 271.044 37.4472 270.768 37.7247C270.493 38.0022 270.166 38.2223 269.806 38.3725C269.446 38.5227 269.06 38.6 268.671 38.6Z" fill="white"/>
<path id="Vector_37" d="M316.375 38.6H276.828C276.438 38.6 276.052 38.5227 275.693 38.3725C275.333 38.2223 275.006 38.0022 274.73 37.7247C274.455 37.4472 274.236 37.1178 274.087 36.7552C273.938 36.3926 273.862 36.004 273.862 35.6116C273.862 34.819 274.174 34.0589 274.73 33.4984C275.287 32.938 276.041 32.6232 276.828 32.6232H316.375C317.161 32.6232 317.916 32.938 318.472 33.4984C319.028 34.0589 319.341 34.819 319.341 35.6116C319.341 36.4042 319.028 37.1643 318.472 37.7247C317.916 38.2851 317.161 38.6 316.375 38.6Z" fill="white"/>
<path id="Vector_38" d="M280.535 48.0632H218.99C218.203 48.0632 217.449 47.7484 216.892 47.1879C216.336 46.6275 216.024 45.8674 216.024 45.0748C216.024 44.2822 216.336 43.5221 216.892 42.9617C217.449 42.4012 218.203 42.0864 218.99 42.0864H280.535C281.322 42.0864 282.076 42.4012 282.632 42.9617C283.189 43.5221 283.501 44.2822 283.501 45.0748C283.501 45.8674 283.189 46.6275 282.632 47.1879C282.076 47.7484 281.322 48.0632 280.535 48.0632Z" fill="white"/>
<path id="Vector_39" d="M316.375 48.0632H288.568C287.781 48.0632 287.027 47.7484 286.471 47.1879C285.915 46.6275 285.602 45.8674 285.602 45.0748C285.602 44.2822 285.915 43.5221 286.471 42.9617C287.027 42.4012 287.781 42.0864 288.568 42.0864H316.375C317.161 42.0864 317.916 42.4012 318.472 42.9617C319.028 43.5221 319.341 44.2822 319.341 45.0748C319.341 45.8674 319.028 46.6275 318.472 47.1879C317.916 47.7484 317.161 48.0632 316.375 48.0632Z" fill="white"/>
<path id="Vector_40" d="M260.762 57.4434H218.99C218.203 57.4434 217.449 57.1286 216.892 56.5681C216.336 56.0077 216.024 55.2476 216.024 54.455C216.024 53.6624 216.336 52.9023 216.892 52.3419C217.449 51.7814 218.203 51.4666 218.99 51.4666H260.762C261.548 51.4666 262.303 51.7814 262.859 52.3419C263.415 52.9023 263.728 53.6624 263.728 54.455C263.728 55.2476 263.415 56.0077 262.859 56.5681C262.303 57.1286 261.548 57.4434 260.762 57.4434Z" fill="white"/>
<path id="Vector_41" d="M316.375 57.4434H294.13C293.343 57.4434 292.588 57.1285 292.032 56.5681C291.476 56.0077 291.164 55.2476 291.164 54.455C291.164 53.6624 291.476 52.9023 292.032 52.3419C292.588 51.7815 293.343 51.4666 294.13 51.4666H316.375C317.161 51.4666 317.916 51.7814 318.472 52.3419C319.028 52.9023 319.341 53.6624 319.341 54.455C319.341 54.8475 319.264 55.2361 319.115 55.5986C318.966 55.9612 318.748 56.2907 318.472 56.5682C318.197 56.8457 317.87 57.0658 317.51 57.216C317.15 57.3661 316.764 57.4434 316.375 57.4434Z" fill="white"/>
<path id="Vector_42" d="M285.231 57.4434H273.614C272.828 57.4434 272.073 57.1286 271.517 56.5681C270.961 56.0077 270.648 55.2476 270.648 54.455C270.648 53.6624 270.961 52.9023 271.517 52.3419C272.073 51.7814 272.828 51.4666 273.614 51.4666H285.231C286.018 51.4666 286.772 51.7814 287.329 52.3419C287.885 52.9023 288.197 53.6624 288.197 54.455C288.197 55.2476 287.885 56.0077 287.329 56.5681C286.772 57.1286 286.018 57.4434 285.231 57.4434Z" fill="white"/>
<path id="Vector_43" d="M272.543 73.2985H242.471C241.684 73.2985 240.93 72.9836 240.374 72.4232C239.818 71.8628 239.505 71.1027 239.505 70.3101C239.505 69.5175 239.818 68.7574 240.374 68.1969C240.93 67.6365 241.684 67.3217 242.471 67.3217H272.543C273.33 67.3217 274.084 67.6365 274.641 68.1969C275.197 68.7574 275.509 69.5175 275.509 70.3101C275.509 71.1027 275.197 71.8628 274.641 72.4232C274.084 72.9836 273.33 73.2985 272.543 73.2985Z" fill="white"/>
<path id="Vector_44" d="M339.856 73.2985H312.049C311.263 73.2985 310.508 72.9836 309.952 72.4232C309.396 71.8628 309.083 71.1027 309.083 70.3101C309.083 69.5175 309.396 68.7574 309.952 68.1969C310.508 67.6365 311.263 67.3217 312.049 67.3217H339.856C340.642 67.3217 341.397 67.6365 341.953 68.1969C342.509 68.7574 342.822 69.5175 342.822 70.3101C342.822 71.1027 342.509 71.8628 341.953 72.4232C341.397 72.9836 340.642 73.2985 339.856 73.2985Z" fill="white"/>
<path id="Vector_45" d="M284.243 82.6787H242.471C241.684 82.6787 240.93 82.3639 240.374 81.8034C239.817 81.243 239.505 80.4829 239.505 79.6903C239.505 78.8977 239.817 78.1376 240.374 77.5772C240.93 77.0167 241.684 76.7019 242.471 76.7019H284.243C285.029 76.7019 285.784 77.0167 286.34 77.5772C286.896 78.1376 287.209 78.8977 287.209 79.6903C287.209 80.4829 286.896 81.243 286.34 81.8034C285.784 82.3639 285.029 82.6787 284.243 82.6787Z" fill="white"/>
<path id="Vector_46" d="M339.856 82.6787H317.611C316.824 82.6787 316.069 82.3639 315.513 81.8034C314.957 81.243 314.645 80.4829 314.645 79.6903C314.645 78.8977 314.957 78.1376 315.513 77.5772C316.069 77.0167 316.824 76.7019 317.611 76.7019H339.856C340.643 76.7019 341.397 77.0167 341.953 77.5772C342.509 78.1376 342.822 78.8977 342.822 79.6903C342.822 80.4829 342.509 81.243 341.953 81.8034C341.397 82.3639 340.643 82.6787 339.856 82.6787Z" fill="white"/>
<path id="Vector_47" d="M308.713 82.6787H297.095C296.706 82.6787 296.32 82.6014 295.96 82.4512C295.601 82.301 295.274 82.0809 294.998 81.8034C294.723 81.5259 294.504 81.1965 294.355 80.8339C294.206 80.4713 294.13 80.0827 294.13 79.6903C294.13 79.2978 294.206 78.9092 294.355 78.5467C294.504 78.1841 294.723 77.8547 294.998 77.5772C295.274 77.2997 295.601 77.0795 295.96 76.9293C296.32 76.7792 296.706 76.7019 297.095 76.7019H308.713C309.102 76.7019 309.488 76.7792 309.848 76.9293C310.207 77.0795 310.534 77.2997 310.81 77.5772C311.085 77.8547 311.304 78.1841 311.453 78.5467C311.602 78.9092 311.679 79.2978 311.679 79.6903C311.679 80.0827 311.602 80.4713 311.453 80.8339C311.304 81.1965 311.085 81.5259 310.81 81.8034C310.534 82.0809 310.207 82.301 309.848 82.4512C309.488 82.6014 309.102 82.6787 308.713 82.6787Z" fill="white"/>
<path id="Vector_48" d="M303.687 73.2985H280.782C279.996 73.2985 279.241 72.9836 278.685 72.4232C278.129 71.8628 277.816 71.1027 277.816 70.3101C277.816 69.5175 278.129 68.7574 278.685 68.1969C279.241 67.6365 279.996 67.3217 280.782 67.3217H303.687C304.076 67.3217 304.462 67.399 304.822 67.5491C305.182 67.6993 305.509 67.9195 305.784 68.197C306.059 68.4745 306.278 68.8039 306.427 69.1665C306.576 69.529 306.653 69.9176 306.653 70.3101C306.653 71.1026 306.34 71.8627 305.784 72.4232C305.228 72.9836 304.473 73.2985 303.687 73.2985Z" fill="white"/>
</g>
<g id="Group_5">
<path id="Vector_49" d="M74.9175 55.1599H20.2482V101.366H74.9175V55.1599Z" fill="#C778DD"/>
<path id="Vector_50" d="M89.2491 101.367H69.954V82.8416L89.2491 101.367Z" fill="#C778DD"/>
<g id="Group_6">
<path id="Vector_51" d="M36.1763 84.3669C36.5139 84.6104 36.9203 84.7378 37.3354 84.7302C37.636 84.7344 37.9332 84.6659 38.2021 84.5304C38.471 84.395 38.7038 84.1965 38.8809 83.9517C39.0322 83.7508 39.1428 83.5219 39.2063 83.2779C39.2698 83.034 39.285 82.7798 39.251 82.53C39.217 82.2801 39.1345 82.0394 39.0082 81.8217C38.8819 81.6039 38.7143 81.4134 38.5149 81.2609L38.4688 81.2267L32.802 76.9967L38.4945 72.7665C38.9078 72.4602 39.1834 72.0011 39.2607 71.4901C39.338 70.979 39.2106 70.458 38.9066 70.0416C38.6026 69.6252 38.1469 69.3475 37.6397 69.2696C37.1325 69.1917 36.6153 69.32 36.202 69.6263L28.4747 75.4396C28.2345 75.6236 28.0397 75.861 27.9056 76.1334C27.7715 76.4057 27.7018 76.7057 27.7018 77.0097C27.7018 77.3137 27.7715 77.6136 27.9056 77.886C28.0397 78.1583 28.2345 78.3958 28.4747 78.5797L36.1763 84.3669Z" fill="white"/>
<path id="Vector_52" d="M62.3461 76.9708L56.6536 81.2268C56.2651 81.5217 56.0051 81.9567 55.9283 82.4407C55.8514 82.9246 55.9637 83.4197 56.2415 83.8219C56.4187 84.0685 56.6508 84.2697 56.9193 84.4094C57.1877 84.5491 57.4849 84.6235 57.787 84.6264C58.2047 84.6246 58.6109 84.4882 58.9462 84.2372L66.6734 78.4239C66.9181 78.246 67.1174 78.012 67.2548 77.7413C67.3922 77.4706 67.4638 77.1709 67.4638 76.8668C67.4638 76.5628 67.3922 76.2631 67.2548 75.9924C67.1174 75.7217 66.9181 75.4877 66.6734 75.3098L58.9461 69.5226C58.7458 69.343 58.5106 69.2073 58.2554 69.1243C58.0001 69.0413 57.7306 69.0128 57.4638 69.0405C57.1971 69.0682 56.939 69.1516 56.7059 69.2853C56.4729 69.419 56.2701 69.6001 56.1103 69.8171C55.9505 70.0341 55.8374 70.2823 55.778 70.5458C55.7187 70.8093 55.7144 71.0823 55.7655 71.3475C55.8166 71.6128 55.922 71.8644 56.0749 72.0864C56.2278 72.3083 56.4249 72.4958 56.6536 72.6368L62.3461 76.9708Z" fill="white"/>
<path id="Vector_53" d="M44.8824 84.5485C45.0953 84.588 45.3135 84.588 45.5263 84.5485C45.9245 84.5525 46.3137 84.429 46.6377 84.1958C46.9618 83.9626 47.204 83.6317 47.3294 83.2509L51.4249 71.6505C51.5956 71.1618 51.5668 70.6248 51.3445 70.1576C51.1223 69.6903 50.725 69.3312 50.24 69.1591C49.7549 68.987 49.2219 69.0161 48.7582 69.24C48.2944 69.4639 47.938 69.8642 47.7672 70.3529L43.6975 81.9533C43.5014 82.4302 43.5014 82.9661 43.6974 83.4431C43.8935 83.92 44.2695 84.299 44.7429 84.4965C44.7887 84.5156 44.8352 84.533 44.8824 84.5485Z" fill="white"/>
</g>
</g>
</g>
</svg>
